<?xml version="1.0" encoding="UTF-8" standalone="no"?><!DOCTYPE svg PUBLIC "-//W3C//DTD SVG 1.1//EN" "http://www.w3.org/Graphics/SVG/1.1/DTD/svg11.dtd"><!-- Generated by graphviz version 2.40.1 (20161225.0304)
 --><!-- Title: graphId Pages: 1 --><svg xmlns="http://www.w3.org/2000/svg" xmlns:xlink="http://www.w3.org/1999/xlink" width="904pt" height="917pt" viewBox="0.00 0.00 903.75 917.00">
<g id="graph0" class="graph" transform="scale(1 1) rotate(0) translate(4 913)">
<title>graphId</title>
<polygon fill="#ffffff" stroke="transparent" points="-4,4 -4,-913 899.7474,-913 899.7474,4 -4,4"/>
<!-- start -->
<g id="node1" class="node">
<title>start</title>
<ellipse fill="#000000" stroke="#000000" cx="551.2987" cy="-891" rx="18" ry="18"/>
</g>
<!-- try_send_start_1 -->
<g id="node2" class="node">
<title>try_send_start_1</title>
<ellipse fill="#eeeeee" stroke="#000000" cx="551.2987" cy="-803" rx="64.4528" ry="18"/>
<text text-anchor="middle" x="551.2987" y="-798.8" font-family="Times,serif" font-size="14.00" fill="#000000">D-&gt;SC: Start </text>
</g>
<!-- start&#45;&gt;try_send_start_1 -->
<g id="edge1" class="edge">
<title>start-&gt;try_send_start_1</title>
<path fill="none" stroke="#000000" d="M551.2987,-872.7663C551.2987,-860.8492 551.2987,-845.0384 551.2987,-831.4817"/>
<polygon fill="#000000" stroke="#000000" points="554.7988,-831.2103 551.2987,-821.2103 547.7988,-831.2103 554.7988,-831.2103"/>
</g>
<!-- s1_entry -->
<g id="node3" class="node">
<title>s1_entry</title>
<ellipse fill="#ffffff" stroke="#000000" cx="551.2987" cy="-715" rx="49.8386" ry="18"/>
<text text-anchor="middle" x="551.2987" y="-710.8" font-family="Times,serif" font-size="14.00" fill="#000000">S1(entry) </text>
</g>
<!-- try_send_start_1&#45;&gt;s1_entry -->
<g id="edge2" class="edge">
<title>try_send_start_1-&gt;s1_entry</title>
<path fill="none" stroke="#000000" d="M551.2987,-784.7663C551.2987,-772.8492 551.2987,-757.0384 551.2987,-743.4817"/>
<polygon fill="#000000" stroke="#000000" points="554.7988,-743.2103 551.2987,-733.2103 547.7988,-743.2103 554.7988,-743.2103"/>
</g>
<!-- rec_ready_3 -->
<g id="node4" class="node">
<title>rec_ready_3</title>
<ellipse fill="#eeeeee" stroke="#000000" cx="462.2987" cy="-627" rx="70.8193" ry="18"/>
<text text-anchor="middle" x="462.2987" y="-622.8" font-family="Times,serif" font-size="14.00" fill="#000000">SC-&gt;D: Ready </text>
</g>
<!-- s1_entry&#45;&gt;rec_ready_3 -->
<g id="edge4" class="edge">
<title>s1_entry-&gt;rec_ready_3</title>
<path fill="none" stroke="#000000" d="M534.1386,-698.0327C520.8902,-684.9331 502.3631,-666.6142 487.4422,-651.861"/>
<polygon fill="#000000" stroke="#000000" points="489.5871,-649.0597 480.0153,-644.5175 484.6654,-654.0374 489.5871,-649.0597"/>
</g>
<!-- doAct_II_1 -->
<g id="node21" class="node">
<title>doAct_II_1</title>
<ellipse fill="#ffffff" stroke="#000000" cx="642.2987" cy="-627" rx="90.3042" ry="18"/>
<text text-anchor="middle" x="642.2987" y="-622.8" font-family="Times,serif" font-size="14.00" fill="#000000">S1(doActivityPartI) </text>
</g>
<!-- s1_entry&#45;&gt;doAct_II_1 -->
<g id="edge3" class="edge">
<title>s1_entry-&gt;doAct_II_1</title>
<path fill="none" stroke="#000000" d="M568.8444,-698.0327C582.3027,-685.0182 601.0882,-666.8519 616.2926,-652.1488"/>
<polygon fill="#000000" stroke="#000000" points="619.1143,-654.289 623.8698,-644.8214 614.2482,-649.257 619.1143,-654.289"/>
</g>
<!-- try_send_cont_3 -->
<g id="node5" class="node">
<title>try_send_cont_3</title>
<ellipse fill="#eeeeee" stroke="#000000" cx="271.2987" cy="-539" rx="81.2941" ry="18"/>
<text text-anchor="middle" x="271.2987" y="-534.8" font-family="Times,serif" font-size="14.00" fill="#000000">D-&gt;SC: Continue </text>
</g>
<!-- rec_ready_3&#45;&gt;try_send_cont_3 -->
<g id="edge5" class="edge">
<title>rec_ready_3-&gt;try_send_cont_3</title>
<path fill="none" stroke="#000000" d="M427.7101,-611.0639C396.364,-596.6217 349.9918,-575.2565 315.8749,-559.5377"/>
<polygon fill="#000000" stroke="#000000" points="317.1468,-556.2701 306.5998,-555.2644 314.2176,-562.6278 317.1468,-556.2701"/>
</g>
<!-- doAct_I_3 -->
<g id="node17" class="node">
<title>doAct_I_3</title>
<ellipse fill="#ffffff" stroke="#000000" cx="462.2987" cy="-539" rx="90.3042" ry="18"/>
<text text-anchor="middle" x="462.2987" y="-534.8" font-family="Times,serif" font-size="14.00" fill="#000000">S1(doActivityPartI) </text>
</g>
<!-- rec_ready_3&#45;&gt;doAct_I_3 -->
<g id="edge6" class="edge">
<title>rec_ready_3-&gt;doAct_I_3</title>
<path fill="none" stroke="#000000" d="M462.2987,-608.7663C462.2987,-596.8492 462.2987,-581.0384 462.2987,-567.4817"/>
<polygon fill="#000000" stroke="#000000" points="465.7988,-567.2103 462.2987,-557.2103 458.7988,-567.2103 465.7988,-567.2103"/>
</g>
<!-- rec_ignored_1 -->
<g id="node6" class="node">
<title>rec_ignored_1</title>
<ellipse fill="#eeeeee" stroke="#ff0000" cx="92.2987" cy="-451" rx="70.8193" ry="18"/>
<text text-anchor="middle" x="92.2987" y="-446.8" font-family="Times,serif" font-size="14.00" fill="#000000">SC-&gt;D: ignore </text>
</g>
<!-- try_send_cont_3&#45;&gt;rec_ignored_1 -->
<g id="edge8" class="edge">
<title>try_send_cont_3-&gt;rec_ignored_1</title>
<path fill="none" stroke="#ff0000" d="M237.6302,-522.4479C208.2265,-507.9924 165.4367,-486.9561 133.8978,-471.451"/>
<polygon fill="#ff0000" stroke="#ff0000" points="135.4289,-468.3036 124.9106,-467.0326 132.3406,-474.5855 135.4289,-468.3036"/>
</g>
<!-- doAct_I_2 -->
<g id="node16" class="node">
<title>doAct_I_2</title>
<ellipse fill="#ffffff" stroke="#000000" cx="271.2987" cy="-451" rx="90.3042" ry="18"/>
<text text-anchor="middle" x="271.2987" y="-446.8" font-family="Times,serif" font-size="14.00" fill="#000000">S1(doActivityPartI) </text>
</g>
<!-- try_send_cont_3&#45;&gt;doAct_I_2 -->
<g id="edge7" class="edge">
<title>try_send_cont_3-&gt;doAct_I_2</title>
<path fill="none" stroke="#000000" d="M271.2987,-520.7663C271.2987,-508.8492 271.2987,-493.0384 271.2987,-479.4817"/>
<polygon fill="#000000" stroke="#000000" points="274.7988,-479.2103 271.2987,-469.2103 267.7988,-479.2103 274.7988,-479.2103"/>
</g>
<!-- throw_away_1 -->
<g id="node7" class="node">
<title>throw_away_1</title>
<ellipse fill="#eeeeee" stroke="#000000" cx="92.2987" cy="-363" rx="92.0979" ry="18"/>
<text text-anchor="middle" x="92.2987" y="-358.8" font-family="Times,serif" font-size="14.00" fill="#000000">D discards Continue </text>
</g>
<!-- rec_ignored_1&#45;&gt;throw_away_1 -->
<g id="edge9" class="edge">
<title>rec_ignored_1-&gt;throw_away_1</title>
<path fill="none" stroke="#ff0000" d="M92.2987,-432.7663C92.2987,-420.8492 92.2987,-405.0384 92.2987,-391.4817"/>
<polygon fill="#ff0000" stroke="#ff0000" points="95.7988,-391.2103 92.2987,-381.2103 88.7988,-391.2103 95.7988,-391.2103"/>
</g>
<!-- doAct_I_1 -->
<g id="node8" class="node">
<title>doAct_I_1</title>
<ellipse fill="#ffffff" stroke="#000000" cx="92.2987" cy="-275" rx="90.3042" ry="18"/>
<text text-anchor="middle" x="92.2987" y="-270.8" font-family="Times,serif" font-size="14.00" fill="#000000">S1(doActivityPartI) </text>
</g>
<!-- throw_away_1&#45;&gt;doAct_I_1 -->
<g id="edge10" class="edge">
<title>throw_away_1-&gt;doAct_I_1</title>
<path fill="none" stroke="#ff0000" d="M92.2987,-344.7663C92.2987,-332.8492 92.2987,-317.0384 92.2987,-303.4817"/>
<polygon fill="#ff0000" stroke="#ff0000" points="95.7988,-303.2103 92.2987,-293.2103 88.7988,-303.2103 95.7988,-303.2103"/>
</g>
<!-- act_subscr_cont_3 -->
<g id="node9" class="node">
<title>act_subscr_cont_3</title>
<ellipse fill="#eeeeee" stroke="#000000" cx="292.2987" cy="-187" rx="82.3973" ry="18"/>
<text text-anchor="middle" x="292.2987" y="-182.8" font-family="Times,serif" font-size="14.00" fill="#000000">A-&gt;D: subscribed </text>
</g>
<!-- doAct_I_1&#45;&gt;act_subscr_cont_3 -->
<g id="edge11" class="edge">
<title>doAct_I_1-&gt;act_subscr_cont_3</title>
<path fill="none" stroke="#ff0000" d="M129.9172,-258.4479C162.808,-243.9759 210.6897,-222.908 245.9401,-207.3978"/>
<polygon fill="#ff0000" stroke="#ff0000" points="247.7811,-210.4116 255.5247,-203.1806 244.9619,-204.0044 247.7811,-210.4116"/>
</g>
<!-- end -->
<g id="node25" class="node">
<title>end</title>
<ellipse fill="#000000" stroke="#000000" cx="473.2987" cy="-22" rx="18" ry="18"/>
<ellipse fill="none" stroke="#000000" cx="473.2987" cy="-22" rx="22" ry="22"/>
</g>
<!-- act_subscr_cont_3&#45;&gt;end -->
<g id="edge34" class="edge">
<title>act_subscr_cont_3-&gt;end</title>
<path fill="none" stroke="#000000" d="M311.6689,-169.3421C344.9894,-138.967 413.0621,-76.9118 449.3201,-43.8589"/>
<polygon fill="#000000" stroke="#000000" points="451.9397,-46.207 456.972,-36.8835 447.2239,-41.0338 451.9397,-46.207"/>
</g>
<!-- rec_ignored_2 -->
<g id="node10" class="node">
<title>rec_ignored_2</title>
<ellipse fill="#eeeeee" stroke="#ff0000" cx="290.2987" cy="-363" rx="70.8193" ry="18"/>
<text text-anchor="middle" x="290.2987" y="-358.8" font-family="Times,serif" font-size="14.00" fill="#000000">SC-&gt;D: ignore </text>
</g>
<!-- throw_away_2 -->
<g id="node11" class="node">
<title>throw_away_2</title>
<ellipse fill="#eeeeee" stroke="#000000" cx="292.2987" cy="-275" rx="92.0979" ry="18"/>
<text text-anchor="middle" x="292.2987" y="-270.8" font-family="Times,serif" font-size="14.00" fill="#000000">D discards Continue </text>
</g>
<!-- rec_ignored_2&#45;&gt;throw_away_2 -->
<g id="edge12" class="edge">
<title>rec_ignored_2-&gt;throw_away_2</title>
<path fill="none" stroke="#ff0000" d="M290.7131,-344.7663C290.984,-332.8492 291.3433,-317.0384 291.6514,-303.4817"/>
<polygon fill="#ff0000" stroke="#ff0000" points="295.1566,-303.2873 291.8849,-293.2103 288.1585,-303.1282 295.1566,-303.2873"/>
</g>
<!-- throw_away_2&#45;&gt;act_subscr_cont_3 -->
<g id="edge13" class="edge">
<title>throw_away_2-&gt;act_subscr_cont_3</title>
<path fill="none" stroke="#ff0000" d="M292.2987,-256.7663C292.2987,-244.8492 292.2987,-229.0384 292.2987,-215.4817"/>
<polygon fill="#ff0000" stroke="#ff0000" points="295.7988,-215.2103 292.2987,-205.2103 288.7988,-215.2103 295.7988,-215.2103"/>
</g>
<!-- act_subscr_cont_5 -->
<g id="node12" class="node">
<title>act_subscr_cont_5</title>
<ellipse fill="#eeeeee" stroke="#000000" cx="461.2987" cy="-363" rx="82.3973" ry="18"/>
<text text-anchor="middle" x="461.2987" y="-358.8" font-family="Times,serif" font-size="14.00" fill="#000000">A-&gt;D: subscribed </text>
</g>
<!-- rec_ignored_3 -->
<g id="node13" class="node">
<title>rec_ignored_3</title>
<ellipse fill="#eeeeee" stroke="#000000" cx="643.2987" cy="-275" rx="70.8193" ry="18"/>
<text text-anchor="middle" x="643.2987" y="-270.8" font-family="Times,serif" font-size="14.00" fill="#000000">SC-&gt;D: ignore </text>
</g>
<!-- act_subscr_cont_5&#45;&gt;rec_ignored_3 -->
<g id="edge14" class="edge">
<title>act_subscr_cont_5-&gt;rec_ignored_3</title>
<path fill="none" stroke="#000000" d="M495.5315,-346.4479C525.428,-331.9924 568.935,-310.9561 601.0024,-295.451"/>
<polygon fill="#000000" stroke="#000000" points="602.661,-298.5367 610.1403,-291.0326 599.6139,-292.2347 602.661,-298.5367"/>
</g>
<!-- act_subscr_cont_6 -->
<g id="node14" class="node">
<title>act_subscr_cont_6</title>
<ellipse fill="#eeeeee" stroke="#000000" cx="731.2987" cy="-187" rx="76.6197" ry="18"/>
<text text-anchor="middle" x="731.2987" y="-182.8" font-family="Times,serif" font-size="14.00" fill="#000000">D-&gt;A: Continue </text>
</g>
<!-- rec_ignored_3&#45;&gt;act_subscr_cont_6 -->
<g id="edge15" class="edge">
<title>rec_ignored_3-&gt;act_subscr_cont_6</title>
<path fill="none" stroke="#000000" d="M661.1068,-257.1919C674.1082,-244.1906 691.9065,-226.3922 706.3272,-211.9715"/>
<polygon fill="#000000" stroke="#000000" points="708.9209,-214.3276 713.5171,-204.7816 703.9711,-209.3778 708.9209,-214.3276"/>
</g>
<!-- doAct_II_2 -->
<g id="node15" class="node">
<title>doAct_II_2</title>
<ellipse fill="#ffffff" stroke="#000000" cx="667.2987" cy="-99" rx="93.2338" ry="18"/>
<text text-anchor="middle" x="667.2987" y="-94.8" font-family="Times,serif" font-size="14.00" fill="#000000">S1(doActivityPartII) </text>
</g>
<!-- act_subscr_cont_6&#45;&gt;doAct_II_2 -->
<g id="edge16" class="edge">
<title>act_subscr_cont_6-&gt;doAct_II_2</title>
<path fill="none" stroke="#000000" d="M718.3474,-169.1919C709.2126,-156.6316 696.8218,-139.5942 686.5354,-125.4504"/>
<polygon fill="#000000" stroke="#000000" points="689.1628,-123.1124 680.4505,-117.0837 683.5017,-127.2297 689.1628,-123.1124"/>
</g>
<!-- doAct_II_2&#45;&gt;end -->
<g id="edge33" class="edge">
<title>doAct_II_2-&gt;end</title>
<path fill="none" stroke="#000000" d="M626.1563,-82.6703C589.3653,-68.0677 536.3113,-47.0101 503.3641,-33.9332"/>
<polygon fill="#000000" stroke="#000000" points="504.4108,-30.583 493.8249,-30.147 501.8284,-37.0893 504.4108,-30.583"/>
</g>
<!-- doAct_I_2&#45;&gt;rec_ignored_2 -->
<g id="edge17" class="edge">
<title>doAct_I_2-&gt;rec_ignored_2</title>
<path fill="none" stroke="#ff0000" d="M275.2355,-432.7663C277.834,-420.7312 281.2899,-404.7249 284.2361,-391.0797"/>
<polygon fill="#ff0000" stroke="#ff0000" points="287.6776,-391.7238 286.367,-381.2103 280.8353,-390.2464 287.6776,-391.7238"/>
</g>
<!-- doAct_I_2&#45;&gt;act_subscr_cont_5 -->
<g id="edge18" class="edge">
<title>doAct_I_2-&gt;act_subscr_cont_5</title>
<path fill="none" stroke="#000000" d="M296.5206,-433.5493C313.0166,-422.6515 335.3222,-408.8667 356.2987,-399 370.7465,-392.2043 386.8404,-386.0365 402.0018,-380.8021"/>
<polygon fill="#000000" stroke="#000000" points="403.4444,-384.0095 411.8036,-377.4999 401.2095,-377.3758 403.4444,-384.0095"/>
</g>
<!-- try_send_cont_1 -->
<g id="node18" class="node">
<title>try_send_cont_1</title>
<ellipse fill="#eeeeee" stroke="#000000" cx="461.2987" cy="-451" rx="81.2941" ry="18"/>
<text text-anchor="middle" x="461.2987" y="-446.8" font-family="Times,serif" font-size="14.00" fill="#000000">D-&gt;SC: Continue </text>
</g>
<!-- doAct_I_3&#45;&gt;try_send_cont_1 -->
<g id="edge19" class="edge">
<title>doAct_I_3-&gt;try_send_cont_1</title>
<path fill="none" stroke="#000000" d="M462.0915,-520.7663C461.9561,-508.8492 461.7764,-493.0384 461.6224,-479.4817"/>
<polygon fill="#000000" stroke="#000000" points="465.1192,-479.1698 461.5057,-469.2103 458.1196,-479.2495 465.1192,-479.1698"/>
</g>
<!-- act_subscr_cont_2 -->
<g id="node19" class="node">
<title>act_subscr_cont_2</title>
<ellipse fill="#eeeeee" stroke="#000000" cx="643.2987" cy="-451" rx="82.3973" ry="18"/>
<text text-anchor="middle" x="643.2987" y="-446.8" font-family="Times,serif" font-size="14.00" fill="#000000">A-&gt;D: subscribed </text>
</g>
<!-- doAct_I_3&#45;&gt;act_subscr_cont_2 -->
<g id="edge20" class="edge">
<title>doAct_I_3-&gt;act_subscr_cont_2</title>
<path fill="none" stroke="#000000" d="M496.7695,-522.2407C526.176,-507.9436 568.5945,-487.3203 600.2321,-471.9385"/>
<polygon fill="#000000" stroke="#000000" points="601.8001,-475.0679 609.2631,-467.5477 598.7393,-468.7725 601.8001,-475.0679"/>
</g>
<!-- try_send_cont_1&#45;&gt;rec_ignored_2 -->
<g id="edge22" class="edge">
<title>try_send_cont_1-&gt;rec_ignored_2</title>
<path fill="none" stroke="#ff0000" d="M429.1349,-434.4479C401.2536,-420.0996 360.7734,-399.2676 330.7105,-383.7967"/>
<polygon fill="#ff0000" stroke="#ff0000" points="332.2338,-380.6444 321.7406,-379.1806 329.0307,-386.8686 332.2338,-380.6444"/>
</g>
<!-- try_send_cont_1&#45;&gt;act_subscr_cont_5 -->
<g id="edge21" class="edge">
<title>try_send_cont_1-&gt;act_subscr_cont_5</title>
<path fill="none" stroke="#000000" d="M461.2987,-432.7663C461.2987,-420.8492 461.2987,-405.0384 461.2987,-391.4817"/>
<polygon fill="#000000" stroke="#000000" points="464.7988,-391.2103 461.2987,-381.2103 457.7988,-391.2103 464.7988,-391.2103"/>
</g>
<!-- act_subscr_cont_2&#45;&gt;act_subscr_cont_6 -->
<g id="edge23" class="edge">
<title>act_subscr_cont_2-&gt;act_subscr_cont_6</title>
<path fill="none" stroke="#000000" d="M677.6528,-434.4285C697.8916,-422.62 721.7319,-404.6499 733.2987,-381 759.6643,-327.092 748.3625,-254.2541 739.0528,-214.9459"/>
<polygon fill="#000000" stroke="#000000" points="742.3925,-213.8734 736.5729,-205.02 735.6013,-215.5702 742.3925,-213.8734"/>
</g>
<!-- try_send_cont_2 -->
<g id="node20" class="node">
<title>try_send_cont_2</title>
<ellipse fill="#eeeeee" stroke="#000000" cx="643.2987" cy="-363" rx="81.2941" ry="18"/>
<text text-anchor="middle" x="643.2987" y="-358.8" font-family="Times,serif" font-size="14.00" fill="#000000">D-&gt;SC: Continue </text>
</g>
<!-- act_subscr_cont_2&#45;&gt;try_send_cont_2 -->
<g id="edge24" class="edge">
<title>act_subscr_cont_2-&gt;try_send_cont_2</title>
<path fill="none" stroke="#000000" d="M643.2987,-432.7663C643.2987,-420.8492 643.2987,-405.0384 643.2987,-391.4817"/>
<polygon fill="#000000" stroke="#000000" points="646.7988,-391.2103 643.2987,-381.2103 639.7988,-391.2103 646.7988,-391.2103"/>
</g>
<!-- try_send_cont_2&#45;&gt;rec_ignored_3 -->
<g id="edge25" class="edge">
<title>try_send_cont_2-&gt;rec_ignored_3</title>
<path fill="none" stroke="#000000" d="M643.2987,-344.7663C643.2987,-332.8492 643.2987,-317.0384 643.2987,-303.4817"/>
<polygon fill="#000000" stroke="#000000" points="646.7988,-303.2103 643.2987,-293.2103 639.7988,-303.2103 646.7988,-303.2103"/>
</g>
<!-- rec_ready_2 -->
<g id="node22" class="node">
<title>rec_ready_2</title>
<ellipse fill="#eeeeee" stroke="#000000" cx="642.2987" cy="-539" rx="70.8193" ry="18"/>
<text text-anchor="middle" x="642.2987" y="-534.8" font-family="Times,serif" font-size="14.00" fill="#000000">SC-&gt;D: Ready </text>
</g>
<!-- doAct_II_1&#45;&gt;rec_ready_2 -->
<g id="edge26" class="edge">
<title>doAct_II_1-&gt;rec_ready_2</title>
<path fill="none" stroke="#000000" d="M642.2987,-608.7663C642.2987,-596.8492 642.2987,-581.0384 642.2987,-567.4817"/>
<polygon fill="#000000" stroke="#000000" points="645.7988,-567.2103 642.2987,-557.2103 638.7988,-567.2103 645.7988,-567.2103"/>
</g>
<!-- act_subscr_cont_1 -->
<g id="node23" class="node">
<title>act_subscr_cont_1</title>
<ellipse fill="#eeeeee" stroke="#000000" cx="813.2987" cy="-539" rx="82.3973" ry="18"/>
<text text-anchor="middle" x="813.2987" y="-534.8" font-family="Times,serif" font-size="14.00" fill="#000000">A-&gt;D: subscribed </text>
</g>
<!-- doAct_II_1&#45;&gt;act_subscr_cont_1 -->
<g id="edge27" class="edge">
<title>doAct_II_1-&gt;act_subscr_cont_1</title>
<path fill="none" stroke="#000000" d="M675.2693,-610.0327C702.7676,-595.8815 742.1016,-575.6395 771.7506,-560.3815"/>
<polygon fill="#000000" stroke="#000000" points="773.7192,-563.3047 781.0093,-555.6168 770.5161,-557.0806 773.7192,-563.3047"/>
</g>
<!-- rec_ready_2&#45;&gt;try_send_cont_1 -->
<g id="edge28" class="edge">
<title>rec_ready_2-&gt;try_send_cont_1</title>
<path fill="none" stroke="#000000" d="M621.6509,-521.7562C607.5862,-510.667 588.1627,-496.5906 569.2987,-487 554.7818,-479.6195 538.4212,-473.2605 522.9077,-468.03"/>
<polygon fill="#000000" stroke="#000000" points="523.9744,-464.6965 513.3819,-464.9201 521.8019,-471.3509 523.9744,-464.6965"/>
</g>
<!-- rec_ready_2&#45;&gt;act_subscr_cont_2 -->
<g id="edge29" class="edge">
<title>rec_ready_2-&gt;act_subscr_cont_2</title>
<path fill="none" stroke="#000000" d="M642.5059,-520.7663C642.6414,-508.8492 642.821,-493.0384 642.9751,-479.4817"/>
<polygon fill="#000000" stroke="#000000" points="646.4778,-479.2495 643.0918,-469.2103 639.4783,-479.1698 646.4778,-479.2495"/>
</g>
<!-- rec_ready_1 -->
<g id="node24" class="node">
<title>rec_ready_1</title>
<ellipse fill="#eeeeee" stroke="#000000" cx="814.2987" cy="-451" rx="70.8193" ry="18"/>
<text text-anchor="middle" x="814.2987" y="-446.8" font-family="Times,serif" font-size="14.00" fill="#000000">SC-&gt;D: Ready </text>
</g>
<!-- act_subscr_cont_1&#45;&gt;rec_ready_1 -->
<g id="edge30" class="edge">
<title>act_subscr_cont_1-&gt;rec_ready_1</title>
<path fill="none" stroke="#000000" d="M813.5059,-520.7663C813.6414,-508.8492 813.821,-493.0384 813.9751,-479.4817"/>
<polygon fill="#000000" stroke="#000000" points="817.4778,-479.2495 814.0918,-469.2103 810.4783,-479.1698 817.4778,-479.2495"/>
</g>
<!-- rec_ready_1&#45;&gt;act_subscr_cont_6 -->
<g id="edge31" class="edge">
<title>rec_ready_1-&gt;act_subscr_cont_6</title>
<path fill="none" stroke="#000000" d="M813.8603,-432.993C812.195,-392.9051 804.2358,-294.2266 766.2987,-223 764.2703,-219.1916 761.7177,-215.5101 758.9195,-212.0487"/>
<polygon fill="#000000" stroke="#000000" points="761.3573,-209.5246 752.0758,-204.4155 756.1454,-214.1976 761.3573,-209.5246"/>
</g>
<!-- rec_ready_1&#45;&gt;try_send_cont_2 -->
<g id="edge32" class="edge">
<title>rec_ready_1-&gt;try_send_cont_2</title>
<path fill="none" stroke="#000000" d="M782.9347,-434.8594C755.3229,-420.6498 714.9145,-399.8549 684.6628,-384.2868"/>
<polygon fill="#000000" stroke="#000000" points="686.1191,-381.1 675.6258,-379.6362 682.916,-387.3241 686.1191,-381.1"/>
</g>
</g>
</svg>