<?xml version="1.0" encoding="UTF-8" standalone="no"?><!DOCTYPE svg PUBLIC "-//W3C//DTD SVG 1.1//EN" "http://www.w3.org/Graphics/SVG/1.1/DTD/svg11.dtd"><!-- Generated by graphviz version 2.40.1 (20161225.0304)
 --><!-- Title: graphId Pages: 1 --><svg xmlns="http://www.w3.org/2000/svg" xmlns:xlink="http://www.w3.org/1999/xlink" width="386pt" height="389pt" viewBox="0.00 0.00 386.30 389.00">
<g id="graph0" class="graph" transform="scale(1 1) rotate(0) translate(4 385)">
<title>graphId</title>
<polygon fill="#ffffff" stroke="transparent" points="-4,4 -4,-385 382.304,-385 382.304,4 -4,4"/>
<!-- start -->
<g id="node1" class="node">
<title>start</title>
<ellipse fill="#000000" stroke="#000000" cx="189.152" cy="-363" rx="18" ry="18"/>
</g>
<!-- node_1667305539 -->
<g id="node3" class="node">
<title>node_1667305539</title>
<ellipse fill="#ffffff" stroke="#000000" cx="189.152" cy="-275" rx="49.8386" ry="18"/>
<text text-anchor="middle" x="189.152" y="-270.8" font-family="Times,serif" font-size="14.00" fill="#000000">S1(entry) </text>
</g>
<!-- start&#45;&gt;node_1667305539 -->
<g id="edge1" class="edge">
<title>start-&gt;node_1667305539</title>
<path fill="none" stroke="#00ff00" d="M189.152,-344.7663C189.152,-332.8492 189.152,-317.0384 189.152,-303.4817"/>
<polygon fill="#00ff00" stroke="#00ff00" points="192.6521,-303.2103 189.152,-293.2103 185.6521,-303.2103 192.6521,-303.2103"/>
</g>
<!-- end -->
<g id="node2" class="node">
<title>end</title>
<ellipse fill="#000000" stroke="#000000" cx="140.152" cy="-22" rx="18" ry="18"/>
<ellipse fill="none" stroke="#000000" cx="140.152" cy="-22" rx="22" ry="22"/>
</g>
<!-- node_2694936 -->
<g id="node5" class="node">
<title>node_2694936</title>
<ellipse fill="#ffffff" stroke="#000000" cx="90.152" cy="-187" rx="90.3042" ry="18"/>
<text text-anchor="middle" x="90.152" y="-182.8" font-family="Times,serif" font-size="14.00" fill="#000000">S1(doActivityPartI) </text>
</g>
<!-- node_1667305539&#45;&gt;node_2694936 -->
<g id="edge3" class="edge">
<title>node_1667305539-&gt;node_2694936</title>
<path fill="none" stroke="#ff0000" d="M170.0638,-258.0327C155.2881,-244.8988 134.6099,-226.5181 117.9902,-211.745"/>
<polygon fill="#ff0000" stroke="#ff0000" points="120.0004,-208.8491 110.201,-204.8214 115.3499,-214.081 120.0004,-208.8491"/>
</g>
<!-- node_308889081 -->
<g id="node6" class="node">
<title>node_308889081</title>
<ellipse fill="#ffffff" stroke="#000000" cx="288.152" cy="-187" rx="90.3042" ry="18"/>
<text text-anchor="middle" x="288.152" y="-182.8" font-family="Times,serif" font-size="14.00" fill="#000000">S1(doActivityPartI) </text>
</g>
<!-- node_1667305539&#45;&gt;node_308889081 -->
<g id="edge2" class="edge">
<title>node_1667305539-&gt;node_308889081</title>
<path fill="none" stroke="#00ff00" d="M208.2402,-258.0327C223.0159,-244.8988 243.6941,-226.5181 260.3138,-211.745"/>
<polygon fill="#00ff00" stroke="#00ff00" points="262.9541,-214.081 268.103,-204.8214 258.3036,-208.8491 262.9541,-214.081"/>
</g>
<!-- node_1808432653 -->
<g id="node4" class="node">
<title>node_1808432653</title>
<ellipse fill="#ffffff" stroke="#000000" cx="268.152" cy="-99" rx="93.2338" ry="18"/>
<text text-anchor="middle" x="268.152" y="-94.8" font-family="Times,serif" font-size="14.00" fill="#000000">S1(doActivityPartII) </text>
</g>
<!-- node_1808432653&#45;&gt;end -->
<g id="edge5" class="edge">
<title>node_1808432653-&gt;end</title>
<path fill="none" stroke="#00ff00" d="M239.4263,-81.7197C218.1096,-68.8964 189.2004,-51.5057 168.0771,-38.7987"/>
<polygon fill="#00ff00" stroke="#00ff00" points="169.6341,-35.6509 159.2609,-33.4952 166.0257,-41.6492 169.6341,-35.6509"/>
</g>
<!-- node_2694936&#45;&gt;end -->
<g id="edge6" class="edge">
<title>node_2694936-&gt;end</title>
<path fill="none" stroke="#ff0000" d="M95.5981,-169.028C104.0161,-141.2484 120.2982,-87.5175 130.6752,-53.2735"/>
<polygon fill="#ff0000" stroke="#ff0000" points="134.1402,-53.9072 133.6908,-43.3219 127.4411,-51.8771 134.1402,-53.9072"/>
</g>
<!-- node_308889081&#45;&gt;node_1808432653 -->
<g id="edge4" class="edge">
<title>node_308889081-&gt;node_1808432653</title>
<path fill="none" stroke="#00ff00" d="M284.008,-168.7663C281.2727,-156.7312 277.6349,-140.7249 274.5337,-127.0797"/>
<polygon fill="#00ff00" stroke="#00ff00" points="277.92,-126.1859 272.2907,-117.2103 271.094,-127.7373 277.92,-126.1859"/>
</g>
</g>
</svg>