<svg width="2043" height="700" xmlns="http://www.w3.org/2000/svg" xmlns:xlink="http://www.w3.org/1999/xlink" xml:space="preserve" overflow="hidden"><defs><clipPath id="clip0"><rect x="718" y="131" width="2043" height="700"/></clipPath></defs><g clip-path="url(#clip0)" transform="translate(-718 -131)"><path d="M918.5 543C918.5 489.705 961.481 446.5 1014.5 446.5 1067.52 446.5 1110.5 489.705 1110.5 543 1110.5 596.295 1067.52 639.5 1014.5 639.5 961.481 639.5 918.5 596.295 918.5 543Z" stroke="#000000" stroke-width="4.58333" stroke-miterlimit="8" fill="#FFFFFF" fill-rule="evenodd"/><text fill="#FFFFFF" font-family="Calibri,Calibri_MSFontService,sans-serif" font-weight="400" font-size="83" transform="matrix(1 0 0 1 998.14 520)">s</text><path d="M1016.74 579.889C1019.26 579.889 1021.55 580.038 1023.61 580.335 1025.68 580.632 1027.74 581.146 1029.79 581.875L1027.97 590.386 1024.69 590.386C1024.39 587.981 1023.6 586.158 1022.32 584.915 1021.03 583.672 1019.01 583.05 1016.26 583.05 1014.12 583.05 1012.39 583.598 1011.07 584.692 1009.75 585.786 1009.08 587.225 1009.08 589.008 1009.08 589.981 1009.25 590.839 1009.59 591.581 1009.93 592.324 1010.61 593.142 1011.64 594.033 1012.66 594.925 1014.26 596.019 1016.42 597.316 1018.12 598.343 1019.49 599.282 1020.51 600.133 1021.54 600.984 1022.35 601.828 1022.94 602.666 1023.54 603.503 1023.97 604.388 1024.24 605.32 1024.51 606.252 1024.65 607.38 1024.65 608.704 1024.65 611.109 1024.01 613.169 1022.72 614.885 1021.44 616.6 1019.7 617.877 1017.49 618.715 1015.29 619.552 1012.79 619.971 1009.98 619.971 1007.73 619.971 1005.53 619.802 1003.37 619.464 1001.21 619.127 998.804 618.552 996.156 617.742L998.102 608.907 1001.26 608.907C1001.37 611.501 1002.1 613.459 1003.45 614.783 1004.8 616.107 1006.95 616.769 1009.9 616.769 1012.46 616.769 1014.47 616.195 1015.91 615.047 1017.36 613.899 1018.08 612.271 1018.08 610.163 1018.08 608.947 1017.88 607.901 1017.47 607.022 1017.07 606.144 1016.41 605.3 1015.49 604.489 1014.57 603.679 1013.11 602.666 1011.11 601.45 1009 600.18 1007.36 599.032 1006.19 598.005 1005.01 596.978 1004.13 595.864 1003.53 594.662 1002.94 593.459 1002.64 592.075 1002.64 590.508 1002.64 588.373 1003.21 586.502 1004.36 584.894 1005.51 583.287 1007.15 582.051 1009.29 581.186 1011.42 580.322 1013.91 579.889 1016.74 579.889Z" fill="#FFFFFF" fill-rule="evenodd"/><text fill="#000000" fill-opacity="0" font-family="Arial,Arial_MSFontService,sans-serif" font-size="40.0815" x="996.156" y="614.961">𝑠</text><path d="M1001.08 530.311C1003.38 530.311 1005.86 530.498 1008.51 530.872 1011.16 531.247 1013.58 531.748 1015.77 532.377L1013.43 543.113 1007.73 543.113C1007.46 540.328 1006.74 538.277 1005.59 536.959 1004.44 535.641 1002.78 534.983 1000.63 534.983 998.621 534.983 997.011 535.499 995.798 536.532 994.586 537.566 993.979 538.966 993.979 540.733 993.979 542.29 994.488 543.652 995.506 544.82 996.525 545.988 998.501 547.456 1001.44 549.223 1004.61 551.109 1006.89 553.056 1008.26 555.063 1009.64 557.069 1010.33 559.42 1010.33 562.115 1010.33 565.17 1009.51 567.776 1007.88 569.932 1006.25 572.088 1004.02 573.69 1001.19 574.738 998.359 575.787 995.132 576.311 991.508 576.311 985.698 576.311 980.128 575.592 974.797 574.154L977.313 563.014 983.018 563.014C983.168 565.709 983.864 567.82 985.107 569.348 986.35 570.875 988.259 571.639 990.835 571.639 993.2 571.639 995.027 571.062 996.315 569.909 997.603 568.756 998.247 567.132 998.247 565.035 998.247 563.777 998.037 562.714 997.618 561.846 997.198 560.977 996.51 560.131 995.551 559.308 994.593 558.484 993.036 557.414 990.879 556.096 987.885 554.299 985.706 552.435 984.343 550.503 982.981 548.571 982.299 546.408 982.299 544.012 982.299 539.609 983.947 536.225 987.241 533.859 990.535 531.494 995.147 530.311 1001.08 530.311Z" fill-rule="evenodd"/><text fill="#000000" fill-opacity="0" font-family="Arial,Arial_MSFontService,sans-serif" font-size="46" x="974.797" y="570.561">𝒔</text><path d="M1038.41 552.777C1036.86 552.777 1035.64 553.458 1034.74 554.821 1033.85 556.185 1033.2 558.213 1032.81 560.906 1032.42 563.6 1032.22 567.106 1032.22 571.424 1032.22 576.222 1032.44 580.039 1032.86 582.874 1033.29 585.71 1033.96 587.798 1034.87 589.139 1035.79 590.481 1037.01 591.151 1038.54 591.151 1039.37 591.151 1040.09 590.95 1040.71 590.546 1041.33 590.143 1041.89 589.51 1042.38 588.649 1042.87 587.787 1043.29 586.642 1043.64 585.214 1043.99 583.785 1044.24 582.008 1044.39 579.881 1044.55 577.755 1044.62 575.383 1044.62 572.766 1044.62 568.862 1044.47 565.579 1044.18 562.918 1043.89 560.258 1043.47 558.207 1042.92 556.768 1042.38 555.329 1041.73 554.303 1040.99 553.693 1040.25 553.082 1039.39 552.777 1038.41 552.777ZM1038.6 549.113C1043.97 549.113 1047.97 550.939 1050.61 554.592 1053.25 558.246 1054.57 563.834 1054.57 571.359 1054.57 579.08 1053.17 584.919 1050.36 588.878 1047.56 592.836 1043.44 594.815 1038.01 594.815 1032.65 594.815 1028.68 592.956 1026.12 589.237 1023.56 585.519 1022.28 579.897 1022.28 572.373 1022.28 564.827 1023.71 559.063 1026.56 555.083 1029.42 551.103 1033.43 549.113 1038.6 549.113Z" fill-rule="evenodd"/><text fill="#000000" fill-opacity="0" font-family="Arial,Arial_MSFontService,sans-serif" font-size="45.7026" x="1022.28" y="589.103">𝟎</text><path d="M1742.5 543C1742.5 489.705 1785.48 446.5 1838.5 446.5 1891.52 446.5 1934.5 489.705 1934.5 543 1934.5 596.295 1891.52 639.5 1838.5 639.5 1785.48 639.5 1742.5 596.295 1742.5 543Z" stroke="#000000" stroke-width="4.58333" stroke-miterlimit="8" fill="#FFFFFF" fill-rule="evenodd"/><text fill="#FFFFFF" font-family="Calibri,Calibri_MSFontService,sans-serif" font-weight="400" font-size="83" transform="matrix(1 0 0 1 1821.77 520)">s</text><path d="M1840.37 579.889C1842.88 579.889 1845.17 580.038 1847.24 580.335 1849.31 580.632 1851.37 581.146 1853.42 581.875L1851.6 590.386 1848.31 590.386C1848.02 587.981 1847.23 586.158 1845.94 584.915 1844.66 583.672 1842.64 583.05 1839.88 583.05 1837.75 583.05 1836.02 583.598 1834.7 584.692 1833.37 585.786 1832.71 587.225 1832.71 589.008 1832.71 589.981 1832.88 590.839 1833.22 591.581 1833.55 592.324 1834.24 593.142 1835.26 594.033 1836.29 594.925 1837.88 596.019 1840.05 597.316 1841.75 598.343 1843.11 599.282 1844.14 600.133 1845.17 600.984 1845.98 601.828 1846.57 602.666 1847.16 603.503 1847.6 604.388 1847.87 605.32 1848.14 606.252 1848.27 607.38 1848.27 608.704 1848.27 611.109 1847.63 613.169 1846.35 614.885 1845.06 616.6 1843.32 617.877 1841.12 618.715 1838.92 619.552 1836.41 619.971 1833.6 619.971 1831.36 619.971 1829.16 619.802 1827 619.464 1824.83 619.127 1822.43 618.552 1819.78 617.742L1821.73 608.907 1824.89 608.907C1825 611.501 1825.73 613.459 1827.08 614.783 1828.43 616.107 1830.58 616.769 1833.52 616.769 1836.09 616.769 1838.09 616.195 1839.54 615.047 1840.98 613.899 1841.71 612.271 1841.71 610.163 1841.71 608.947 1841.5 607.901 1841.1 607.022 1840.69 606.144 1840.03 605.3 1839.11 604.489 1838.19 603.679 1836.74 602.666 1834.74 601.45 1832.63 600.18 1830.99 599.032 1829.81 598.005 1828.64 596.978 1827.75 595.864 1827.16 594.662 1826.56 593.459 1826.27 592.075 1826.27 590.508 1826.27 588.373 1826.84 586.502 1827.99 584.894 1829.14 583.287 1830.78 582.051 1832.91 581.186 1835.05 580.322 1837.53 579.889 1840.37 579.889Z" fill="#FFFFFF" fill-rule="evenodd"/><text fill="#000000" fill-opacity="0" font-family="Arial,Arial_MSFontService,sans-serif" font-size="40.0815" x="1819.78" y="614.961">𝑠</text><path d="M1824.7 530.311C1827.01 530.311 1829.49 530.498 1832.14 530.872 1834.79 531.247 1837.2 531.748 1839.39 532.377L1837.06 543.113 1831.35 543.113C1831.08 540.328 1830.37 538.277 1829.22 536.959 1828.06 535.641 1826.41 534.983 1824.25 534.983 1822.25 534.983 1820.64 535.499 1819.42 536.532 1818.21 537.566 1817.6 538.966 1817.6 540.733 1817.6 542.29 1818.11 543.652 1819.13 544.82 1820.15 545.988 1822.13 547.456 1825.06 549.223 1828.24 551.109 1830.51 553.056 1831.89 555.063 1833.27 557.069 1833.96 559.42 1833.96 562.115 1833.96 565.17 1833.14 567.776 1831.51 569.932 1829.88 572.088 1827.64 573.69 1824.81 574.738 1821.98 575.787 1818.76 576.311 1815.13 576.311 1809.32 576.311 1803.75 575.592 1798.42 574.154L1800.94 563.014 1806.64 563.014C1806.79 565.709 1807.49 567.82 1808.73 569.348 1809.97 570.875 1811.88 571.639 1814.46 571.639 1816.83 571.639 1818.65 571.062 1819.94 569.909 1821.23 568.756 1821.87 567.132 1821.87 565.035 1821.87 563.777 1821.66 562.714 1821.24 561.846 1820.82 560.977 1820.13 560.131 1819.18 559.308 1818.22 558.484 1816.66 557.414 1814.5 556.096 1811.51 554.299 1809.33 552.435 1807.97 550.503 1806.61 548.571 1805.92 546.408 1805.92 544.012 1805.92 539.609 1807.57 536.225 1810.87 533.859 1814.16 531.494 1818.77 530.311 1824.7 530.311Z" fill-rule="evenodd"/><text fill="#000000" fill-opacity="0" font-family="Arial,Arial_MSFontService,sans-serif" font-size="46" x="1798.42" y="570.561">𝒔</text><path d="M1864.45 549.113 1868.64 549.113C1868.51 551.206 1868.44 554.107 1868.44 557.815L1868.44 585.164C1868.44 586.429 1868.51 587.384 1868.66 588.027 1868.8 588.67 1869.05 589.194 1869.41 589.597 1869.77 590.001 1870.29 590.317 1870.96 590.546 1871.64 590.775 1872.49 590.95 1873.51 591.07 1874.54 591.189 1875.89 591.271 1877.57 591.315L1877.57 594.292 1849.34 594.292 1849.34 591.315C1851.76 591.206 1853.49 591.059 1854.52 590.873 1855.56 590.688 1856.35 590.41 1856.89 590.039 1857.44 589.668 1857.84 589.145 1858.09 588.469 1858.34 587.793 1858.47 586.691 1858.47 585.164L1858.47 561.512C1858.47 560.617 1858.3 559.974 1857.96 559.581 1857.62 559.189 1857.16 558.993 1856.57 558.993 1856.02 558.993 1855.25 559.243 1854.26 559.745 1853.27 560.247 1851.64 561.272 1849.37 562.82L1847.37 559.352Z" fill-rule="evenodd"/><text fill="#000000" fill-opacity="0" font-family="Arial,Arial_MSFontService,sans-serif" font-size="45.1792" x="1847.37" y="588.645">𝟏</text><path d="M2565.5 543C2565.5 489.705 2608.7 446.5 2662 446.5 2715.3 446.5 2758.5 489.705 2758.5 543 2758.5 596.295 2715.3 639.5 2662 639.5 2608.7 639.5 2565.5 596.295 2565.5 543Z" stroke="#000000" stroke-width="4.58333" stroke-miterlimit="8" fill="#FFFFFF" fill-rule="evenodd"/><text fill="#FFFFFF" font-family="Calibri,Calibri_MSFontService,sans-serif" font-weight="400" font-size="83" transform="matrix(1 0 0 1 2645.39 520)">s</text><path d="M2663.99 579.889C2666.51 579.889 2668.8 580.038 2670.86 580.335 2672.93 580.632 2674.99 581.146 2677.04 581.875L2675.22 590.386 2671.94 590.386C2671.64 587.981 2670.85 586.158 2669.57 584.915 2668.28 583.672 2666.26 583.05 2663.51 583.05 2661.37 583.05 2659.64 583.598 2658.32 584.692 2657 585.786 2656.33 587.225 2656.33 589.008 2656.33 589.981 2656.5 590.839 2656.84 591.581 2657.18 592.324 2657.86 593.142 2658.89 594.033 2659.91 594.925 2661.51 596.019 2663.67 597.316 2665.37 598.343 2666.74 599.282 2667.76 600.133 2668.79 600.984 2669.6 601.828 2670.19 602.666 2670.79 603.503 2671.22 604.388 2671.49 605.32 2671.76 606.252 2671.9 607.38 2671.9 608.704 2671.9 611.109 2671.26 613.169 2669.97 614.885 2668.69 616.6 2666.95 617.877 2664.74 618.715 2662.54 619.552 2660.04 619.971 2657.23 619.971 2654.98 619.971 2652.78 619.802 2650.62 619.464 2648.46 619.127 2646.05 618.552 2643.41 617.742L2645.35 608.907 2648.51 608.907C2648.62 611.501 2649.35 613.459 2650.7 614.783 2652.05 616.107 2654.2 616.769 2657.15 616.769 2659.71 616.769 2661.72 616.195 2663.16 615.047 2664.61 613.899 2665.33 612.271 2665.33 610.163 2665.33 608.947 2665.13 607.901 2664.72 607.022 2664.32 606.144 2663.66 605.3 2662.74 604.489 2661.82 603.679 2660.36 602.666 2658.36 601.45 2656.25 600.18 2654.61 599.032 2653.44 598.005 2652.26 596.978 2651.38 595.864 2650.78 594.662 2650.19 593.459 2649.89 592.075 2649.89 590.508 2649.89 588.373 2650.46 586.502 2651.61 584.894 2652.76 583.287 2654.4 582.051 2656.54 581.186 2658.67 580.322 2661.16 579.889 2663.99 579.889Z" fill="#FFFFFF" fill-rule="evenodd"/><text fill="#000000" fill-opacity="0" font-family="Arial,Arial_MSFontService,sans-serif" font-size="40.0815" x="2643.41" y="614.961">𝑠</text><path d="M2648.33 530.311C2650.63 530.311 2653.11 530.498 2655.76 530.872 2658.41 531.247 2660.83 531.748 2663.02 532.377L2660.68 543.113 2654.98 543.113C2654.71 540.328 2653.99 538.277 2652.84 536.959 2651.69 535.641 2650.03 534.983 2647.88 534.983 2645.87 534.983 2644.26 535.499 2643.05 536.532 2641.84 537.566 2641.23 538.966 2641.23 540.733 2641.23 542.29 2641.74 543.652 2642.76 544.82 2643.77 545.988 2645.75 547.456 2648.69 549.223 2651.86 551.109 2654.14 553.056 2655.51 555.063 2656.89 557.069 2657.58 559.42 2657.58 562.115 2657.58 565.17 2656.76 567.776 2655.13 569.932 2653.5 572.088 2651.27 573.69 2648.44 574.738 2645.61 575.787 2642.38 576.311 2638.76 576.311 2632.95 576.311 2627.38 575.592 2622.05 574.154L2624.56 563.014 2630.27 563.014C2630.42 565.709 2631.11 567.82 2632.36 569.348 2633.6 570.875 2635.51 571.639 2638.08 571.639 2640.45 571.639 2642.28 571.062 2643.56 569.909 2644.85 568.756 2645.5 567.132 2645.5 565.035 2645.5 563.777 2645.29 562.714 2644.87 561.846 2644.45 560.977 2643.76 560.131 2642.8 559.308 2641.84 558.484 2640.29 557.414 2638.13 556.096 2635.13 554.299 2632.96 552.435 2631.59 550.503 2630.23 548.571 2629.55 546.408 2629.55 544.012 2629.55 539.609 2631.2 536.225 2634.49 533.859 2637.78 531.494 2642.4 530.311 2648.33 530.311Z" fill-rule="evenodd"/><text fill="#000000" fill-opacity="0" font-family="Arial,Arial_MSFontService,sans-serif" font-size="46" x="2622.05" y="570.561">𝒔</text><path d="M2685.53 549.113C2688.73 549.113 2691.35 549.543 2693.38 550.405 2695.41 551.266 2696.87 552.433 2697.78 553.905 2698.68 555.378 2699.13 557.095 2699.13 559.058 2699.13 560.781 2698.81 562.384 2698.17 563.867 2697.53 565.35 2696.41 567.04 2694.83 568.938 2693.25 570.835 2690.58 573.551 2686.83 577.084 2685.68 578.174 2684.3 579.608 2682.7 581.386 2681.09 583.163 2679.82 584.685 2678.88 585.95L2678.88 586.277 2690.5 586.277C2691.92 586.277 2692.97 586.173 2693.67 585.966 2694.37 585.759 2694.92 585.399 2695.32 584.886 2695.73 584.374 2696.06 583.605 2696.32 582.58L2700.08 582.58 2699.33 594.292 2669.36 594.292 2669.36 592.133C2671.04 588.272 2674.48 583.3 2679.67 577.215 2682.02 574.445 2683.82 572.166 2685.05 570.377 2686.28 568.589 2687.2 566.899 2687.82 565.307 2688.43 563.714 2688.73 562.068 2688.73 560.367 2688.73 557.968 2688.2 556.086 2687.13 554.723 2686.06 553.36 2684.6 552.679 2682.74 552.679 2679.19 552.679 2676.91 555.241 2675.91 560.367L2670.02 560.367 2670.02 552.646C2673.57 551.206 2676.44 550.258 2678.62 549.8 2680.8 549.342 2683.1 549.113 2685.53 549.113Z" fill-rule="evenodd"/><text fill="#000000" fill-opacity="0" font-family="Arial,Arial_MSFontService,sans-serif" font-size="45.1792" x="2669.36" y="588.645">𝟐</text><path d="M798.5 540.208 895.892 540.209 895.892 544.792 798.5 544.792ZM891.309 528.75 918.809 542.5 891.309 556.25Z"/><path d="M1110.5 540.208 1718.71 540.209 1718.71 544.792 1110.5 544.792ZM1714.13 528.75 1741.63 542.5 1714.13 556.25Z"/><path d="M1934.5 540.208 2542.71 540.209 2542.71 544.792 1934.5 544.792ZM2538.12 528.75 2565.62 542.5 2538.12 556.25Z"/><path d="M1390.54 463.323C1387.43 463.323 1384.71 464.626 1382.39 467.232 1380.07 469.837 1378.24 473.565 1376.91 478.417 1375.58 483.269 1374.91 487.446 1374.91 490.95 1374.91 494.245 1375.59 496.678 1376.95 498.25 1378.32 499.822 1380.38 500.608 1383.13 500.608 1386.07 500.608 1388.67 499.291 1390.95 496.655 1393.22 494.02 1395.02 490.329 1396.34 485.582 1397.66 480.835 1398.32 476.665 1398.32 473.071 1398.32 469.837 1397.69 467.404 1396.43 465.772 1395.17 464.139 1393.21 463.323 1390.54 463.323ZM1337.81 463.233C1334.76 463.233 1332.02 464.469 1329.59 466.94 1327.17 469.41 1325.26 472.742 1323.86 476.935 1322.47 481.127 1321.78 485.305 1321.78 489.468 1321.78 492.582 1322.2 494.911 1323.06 496.453 1323.91 497.996 1325.34 498.767 1327.35 498.767 1328.27 498.767 1329.22 498.565 1330.18 498.16 1331.13 497.756 1332.13 497.105 1333.16 496.206 1334.2 495.308 1335.22 494.215 1336.22 492.927 1337.22 491.639 1338.14 490.344 1338.98 489.041 1339.82 487.738 1340.6 486.196 1341.32 484.414 1342.04 482.632 1342.65 480.483 1343.16 477.968L1343.56 476.036C1344.01 473.88 1344.24 471.843 1344.24 469.927 1344.24 467.591 1343.74 465.891 1342.75 464.828 1341.77 463.765 1340.12 463.233 1337.81 463.233ZM1391.44 459.73C1396.23 459.73 1399.89 461.04 1402.4 463.66 1404.92 466.281 1406.18 470.032 1406.18 474.913 1406.18 478.387 1405.57 482.101 1404.36 486.054 1403.14 490.007 1401.48 493.331 1399.37 496.026 1397.26 498.722 1394.74 500.751 1391.8 502.113 1388.87 503.476 1385.5 504.157 1381.69 504.157 1377.05 504.157 1373.45 502.855 1370.89 500.249 1368.33 497.644 1367.05 493.9 1367.05 489.019 1367.05 486.623 1367.41 483.853 1368.13 480.708 1369.06 476.455 1370.61 472.742 1372.8 469.567 1374.99 466.393 1377.68 463.96 1380.89 462.268 1384.09 460.576 1387.61 459.73 1391.44 459.73ZM1356.64 439.155 1359.29 439.155 1348.1 488.884C1347.44 491.819 1347.11 494.035 1347.11 495.532 1347.11 496.73 1347.31 497.599 1347.7 498.138 1348.09 498.677 1348.7 498.946 1349.54 498.946 1350.44 498.946 1351.39 498.579 1352.41 497.846 1353.43 497.112 1354.87 495.712 1356.73 493.646L1359.29 496.161C1356.53 499.066 1354.21 501.118 1352.32 502.315 1350.44 503.513 1348.4 504.112 1346.21 504.112 1344.36 504.112 1342.87 503.498 1341.77 502.271 1340.66 501.043 1340.1 499.411 1340.1 497.374 1340.1 495.727 1340.45 493.975 1341.14 492.118L1340.55 491.939C1337.68 496.131 1334.95 499.201 1332.38 501.148 1329.8 503.094 1327.08 504.067 1324.2 504.067 1320.91 504.067 1318.35 502.825 1316.54 500.339 1314.73 497.853 1313.82 494.364 1313.82 489.872 1313.82 484.721 1314.84 479.772 1316.86 475.025 1318.88 470.279 1321.66 466.535 1325.19 463.795 1328.72 461.055 1332.66 459.685 1337 459.685 1338.83 459.685 1340.52 459.872 1342.06 460.246 1343.6 460.621 1345.18 461.272 1346.8 462.2L1349.13 451.823C1349.37 450.835 1349.58 449.742 1349.76 448.544 1349.94 447.346 1350.03 446.298 1350.03 445.399 1350.03 444.501 1349.87 443.82 1349.54 443.356 1349.21 442.891 1348.74 442.554 1348.12 442.345 1347.51 442.135 1346.41 441.985 1344.82 441.896L1345.36 439.56Z" fill-rule="evenodd"/><text fill="#000000" fill-opacity="0" font-family="Arial,Arial_MSFontService,sans-serif" font-size="65.002" x="1313.82" y="496.032">𝑑𝑜</text><path d="M1468.46 439.11 1475.43 439.11 1442.99 522.71 1435.94 522.71Z" fill-rule="evenodd"/><text fill="#000000" fill-opacity="0" font-family="Arial,Arial_MSFontService,sans-serif" font-size="83.5996" x="1435.94" y="512.26">/</text><path d="M1524.85 459.685C1529.16 459.685 1533.68 460.403 1538.42 461.841L1536.71 470.017 1532.49 470.017C1531.95 465.495 1529.3 463.233 1524.53 463.233 1521.81 463.233 1519.58 464.005 1517.84 465.547 1516.1 467.089 1515.24 469.208 1515.24 471.903 1515.24 473.85 1516.01 475.407 1517.55 476.575 1519.09 477.743 1521.21 478.327 1523.91 478.327L1530.28 478.327 1529.25 482.954 1524.76 482.954C1522.48 482.954 1520.61 483.104 1519.14 483.403 1517.68 483.703 1516.3 484.19 1515.01 484.863 1513.72 485.537 1512.71 486.256 1511.98 487.02 1511.24 487.783 1510.7 488.644 1510.34 489.603 1509.98 490.561 1509.8 491.654 1509.8 492.882 1509.8 494.978 1510.52 496.58 1511.96 497.689 1513.39 498.797 1515.46 499.351 1518.16 499.351 1520.52 499.351 1522.8 499.014 1525.01 498.34 1527.21 497.666 1529.7 496.386 1532.49 494.499L1534.69 498.003C1531.57 500.159 1528.51 501.717 1525.5 502.675 1522.49 503.633 1519.34 504.112 1516.04 504.112 1513.05 504.112 1510.48 503.611 1508.34 502.607 1506.2 501.604 1504.6 500.272 1503.53 498.609 1502.47 496.947 1501.94 495.113 1501.94 493.107 1501.94 490.022 1503.14 487.386 1505.53 485.2 1507.93 483.014 1511.37 481.442 1515.86 480.483L1515.95 480.034C1510.74 478.297 1508.14 475.302 1508.14 471.05 1508.14 469.133 1508.74 467.314 1509.93 465.592 1511.13 463.87 1513.01 462.455 1515.57 461.347 1518.13 460.239 1521.23 459.685 1524.85 459.685Z" fill-rule="evenodd"/><text fill="#000000" fill-opacity="0" font-family="Arial,Arial_MSFontService,sans-serif" font-size="44.4277" x="1501.94" y="498.559">𝜀</text><path d="M2216.23 465.708C2213.11 465.708 2210.4 467.01 2208.07 469.616 2205.75 472.221 2203.93 475.95 2202.59 480.801 2201.26 485.653 2200.59 489.831 2200.59 493.335 2200.59 496.629 2201.28 499.062 2202.64 500.634 2204 502.207 2206.06 502.993 2208.82 502.993 2211.75 502.993 2214.36 501.675 2216.63 499.04 2218.91 496.404 2220.7 492.713 2222.02 487.966 2223.34 483.22 2224 479.049 2224 475.456 2224 472.221 2223.37 469.788 2222.11 468.156 2220.85 466.524 2218.89 465.708 2216.23 465.708ZM2163.5 465.618C2160.44 465.618 2157.7 466.853 2155.28 469.324 2152.85 471.795 2150.94 475.126 2149.55 479.319 2148.16 483.512 2147.46 487.689 2147.46 491.852 2147.46 494.967 2147.89 497.295 2148.74 498.838 2149.59 500.38 2151.02 501.151 2153.03 501.151 2153.96 501.151 2154.9 500.949 2155.86 500.545 2156.82 500.14 2157.81 499.489 2158.85 498.591 2159.88 497.692 2160.9 496.599 2161.9 495.311 2162.91 494.023 2163.83 492.728 2164.66 491.425 2165.5 490.123 2166.28 488.58 2167 486.799 2167.72 485.017 2168.33 482.868 2168.84 480.352L2169.25 478.421C2169.7 476.264 2169.92 474.228 2169.92 472.311 2169.92 469.975 2169.43 468.276 2168.44 467.213 2167.45 466.149 2165.8 465.618 2163.5 465.618ZM2217.13 462.114C2221.92 462.114 2225.57 463.424 2228.09 466.045 2230.6 468.665 2231.86 472.416 2231.86 477.298 2231.86 480.772 2231.25 484.485 2230.04 488.438 2228.83 492.391 2227.17 495.716 2225.05 498.411 2222.94 501.106 2220.42 503.135 2217.49 504.498 2214.55 505.86 2211.18 506.542 2207.38 506.542 2202.74 506.542 2199.13 505.239 2196.57 502.633 2194.01 500.028 2192.73 496.285 2192.73 491.403 2192.73 489.007 2193.09 486.237 2193.81 483.092 2194.74 478.84 2196.3 475.126 2198.48 471.952 2200.67 468.777 2203.36 466.344 2206.57 464.652 2209.77 462.96 2213.29 462.114 2217.13 462.114ZM2182.32 441.54 2184.97 441.54 2173.78 491.268C2173.12 494.203 2172.8 496.419 2172.8 497.917 2172.8 499.115 2172.99 499.983 2173.38 500.522 2173.77 501.061 2174.38 501.331 2175.22 501.331 2176.12 501.331 2177.08 500.964 2178.1 500.23 2179.11 499.496 2180.55 498.096 2182.41 496.03L2184.97 498.546C2182.21 501.451 2179.89 503.502 2178.01 504.7 2176.12 505.898 2174.08 506.497 2171.9 506.497 2170.04 506.497 2168.56 505.883 2167.45 504.655 2166.34 503.427 2165.79 501.795 2165.79 499.758 2165.79 498.111 2166.13 496.359 2166.82 494.503L2166.24 494.323C2163.36 498.516 2160.64 501.585 2158.06 503.532 2155.49 505.479 2152.76 506.452 2149.89 506.452 2146.59 506.452 2144.04 505.209 2142.23 502.723 2140.41 500.238 2139.51 496.749 2139.51 492.257 2139.51 487.105 2140.52 482.157 2142.54 477.41 2144.56 472.663 2147.34 468.92 2150.87 466.179 2154.41 463.439 2158.35 462.069 2162.69 462.069 2164.52 462.069 2166.2 462.256 2167.74 462.631 2169.28 463.005 2170.86 463.656 2172.48 464.585L2174.82 454.208C2175.06 453.219 2175.27 452.126 2175.45 450.928 2175.63 449.73 2175.72 448.682 2175.72 447.784 2175.72 446.885 2175.55 446.204 2175.22 445.74 2174.89 445.276 2174.42 444.939 2173.81 444.729 2173.19 444.52 2172.09 444.37 2170.5 444.28L2171.04 441.944Z" fill-rule="evenodd"/><text fill="#000000" fill-opacity="0" font-family="Arial,Arial_MSFontService,sans-serif" font-size="65.002" x="2139.51" y="498.416">𝑑𝑜</text><path d="M2294.15 441.495 2301.11 441.495 2268.68 525.094 2261.62 525.094Z" fill-rule="evenodd"/><text fill="#000000" fill-opacity="0" font-family="Arial,Arial_MSFontService,sans-serif" font-size="83.5996" x="2261.62" y="514.644">/</text><path d="M2350.53 462.069C2354.84 462.069 2359.37 462.788 2364.1 464.225L2362.39 472.401 2358.17 472.401C2357.63 467.879 2354.98 465.618 2350.22 465.618 2347.49 465.618 2345.26 466.389 2343.52 467.931 2341.79 469.474 2340.92 471.592 2340.92 474.288 2340.92 476.234 2341.69 477.792 2343.23 478.96 2344.77 480.128 2346.89 480.712 2349.59 480.712L2355.97 480.712 2354.93 485.339 2350.44 485.339C2348.17 485.339 2346.29 485.488 2344.83 485.788 2343.36 486.087 2341.98 486.574 2340.69 487.248 2339.41 487.922 2338.4 488.64 2337.66 489.404 2336.93 490.168 2336.38 491.029 2336.02 491.987 2335.66 492.945 2335.48 494.038 2335.48 495.266 2335.48 497.363 2336.2 498.965 2337.64 500.073 2339.08 501.181 2341.14 501.735 2343.84 501.735 2346.2 501.735 2348.49 501.398 2350.69 500.724 2352.89 500.05 2355.38 498.77 2358.17 496.883L2360.37 500.387C2357.26 502.544 2354.19 504.101 2351.18 505.059 2348.17 506.018 2345.02 506.497 2341.73 506.497 2338.73 506.497 2336.16 505.995 2334.02 504.992 2331.88 503.989 2330.28 502.656 2329.22 500.994 2328.15 499.332 2327.62 497.497 2327.62 495.491 2327.62 492.406 2328.82 489.771 2331.22 487.585 2333.61 485.398 2337.06 483.826 2341.55 482.868L2341.64 482.419C2336.43 480.682 2333.82 477.687 2333.82 473.434 2333.82 471.518 2334.42 469.698 2335.62 467.976 2336.82 466.254 2338.7 464.839 2341.26 463.731 2343.82 462.623 2346.91 462.069 2350.53 462.069Z" fill-rule="evenodd"/><text fill="#000000" fill-opacity="0" font-family="Arial,Arial_MSFontService,sans-serif" font-size="44.4277" x="2327.62" y="500.943">𝜀</text><path d="M1731.18 196.275C1728.06 196.275 1725.34 197.578 1723.02 200.183 1720.7 202.789 1718.88 206.517 1717.54 211.369 1716.21 216.221 1715.54 220.398 1715.54 223.902 1715.54 227.196 1716.23 229.63 1717.59 231.202 1718.95 232.774 1721.01 233.56 1723.76 233.56 1726.7 233.56 1729.31 232.243 1731.58 229.607 1733.86 226.972 1735.65 223.281 1736.97 218.534 1738.29 213.787 1738.95 209.617 1738.95 206.023 1738.95 202.789 1738.32 200.356 1737.06 198.723 1735.8 197.091 1733.84 196.275 1731.18 196.275ZM1678.45 196.185C1675.39 196.185 1672.65 197.421 1670.23 199.891 1667.8 202.362 1665.89 205.694 1664.5 209.887 1663.11 214.079 1662.41 218.257 1662.41 222.42 1662.41 225.534 1662.84 227.863 1663.69 229.405 1664.54 230.947 1665.97 231.719 1667.98 231.719 1668.91 231.719 1669.85 231.516 1670.81 231.112 1671.77 230.708 1672.76 230.056 1673.8 229.158 1674.83 228.26 1675.85 227.166 1676.85 225.879 1677.85 224.591 1678.78 223.296 1679.61 221.993 1680.45 220.69 1681.23 219.148 1681.95 217.366 1682.67 215.584 1683.28 213.435 1683.79 210.92L1684.2 208.988C1684.65 206.832 1684.87 204.795 1684.87 202.879 1684.87 200.543 1684.38 198.843 1683.39 197.78 1682.4 196.717 1680.75 196.185 1678.45 196.185ZM1732.08 192.681C1736.87 192.681 1740.52 193.992 1743.04 196.612 1745.55 199.233 1746.81 202.984 1746.81 207.865 1746.81 211.339 1746.2 215.053 1744.99 219.006 1743.78 222.959 1742.12 226.283 1740 228.978 1737.89 231.674 1735.37 233.703 1732.43 235.065 1729.5 236.428 1726.13 237.109 1722.33 237.109 1717.69 237.109 1714.08 235.806 1711.52 233.201 1708.96 230.596 1707.68 226.852 1707.68 221.971 1707.68 219.575 1708.04 216.805 1708.76 213.66 1709.69 209.407 1711.25 205.694 1713.43 202.519 1715.62 199.345 1718.31 196.912 1721.52 195.22 1724.72 193.527 1728.24 192.681 1732.08 192.681ZM1697.27 172.107 1699.92 172.107 1688.73 221.836C1688.07 224.771 1687.75 226.987 1687.75 228.484 1687.75 229.682 1687.94 230.551 1688.33 231.09 1688.72 231.629 1689.33 231.898 1690.17 231.898 1691.07 231.898 1692.03 231.531 1693.05 230.798 1694.06 230.064 1695.5 228.664 1697.36 226.597L1699.92 229.113C1697.16 232.018 1694.84 234.069 1692.96 235.267 1691.07 236.465 1689.03 237.064 1686.85 237.064 1684.99 237.064 1683.51 236.45 1682.4 235.222 1681.29 233.995 1680.74 232.362 1680.74 230.326 1680.74 228.679 1681.08 226.927 1681.77 225.07L1681.19 224.89C1678.31 229.083 1675.59 232.153 1673.01 234.099 1670.44 236.046 1667.71 237.019 1664.83 237.019 1661.54 237.019 1658.99 235.777 1657.18 233.291 1655.36 230.805 1654.46 227.316 1654.46 222.824 1654.46 217.673 1655.47 212.724 1657.49 207.977 1659.51 203.231 1662.29 199.487 1665.82 196.747 1669.36 194.007 1673.3 192.637 1677.64 192.637 1679.46 192.637 1681.15 192.824 1682.69 193.198 1684.23 193.572 1685.81 194.224 1687.43 195.152L1689.77 184.775C1690.01 183.787 1690.22 182.694 1690.4 181.496 1690.58 180.298 1690.67 179.25 1690.67 178.351 1690.67 177.453 1690.5 176.772 1690.17 176.307 1689.84 175.843 1689.37 175.506 1688.76 175.297 1688.14 175.087 1687.04 174.937 1685.45 174.847L1685.99 172.512Z" fill-rule="evenodd"/><text fill="#000000" fill-opacity="0" font-family="Arial,Arial_MSFontService,sans-serif" font-size="65.002" x="1654.46" y="228.984">𝑑𝑜</text><path d="M1809.1 172.062 1816.06 172.062 1783.63 255.662 1776.57 255.662Z" fill-rule="evenodd"/><text fill="#000000" fill-opacity="0" font-family="Arial,Arial_MSFontService,sans-serif" font-size="83.5996" x="1776.57" y="245.212">/</text><path d="M2011.59 197.937C2010.06 197.937 2008.56 198.454 2007.08 199.487 2005.59 200.52 2003.97 202.175 2002.2 204.451 2000.44 206.727 1999.06 208.973 1998.07 211.189 1997.08 213.405 1996.3 215.951 1995.73 218.826L1995.37 220.713C1995.07 222.3 1994.89 223.513 1994.81 224.351 1994.74 225.19 1994.7 226.013 1994.7 226.822 1994.7 229.158 1995.2 230.858 1996.21 231.921 1997.21 232.984 1998.94 233.515 2001.39 233.515 2002.92 233.515 2004.33 233.216 2005.62 232.617 2006.9 232.018 2008.12 231.15 2009.28 230.012 2010.43 228.874 2011.47 227.496 2012.4 225.879 2013.33 224.262 2014.16 222.382 2014.89 220.241 2015.63 218.1 2016.18 215.899 2016.56 213.638 2016.93 211.376 2017.12 209.258 2017.12 207.281 2017.12 204.137 2016.67 201.793 2015.79 200.251 2014.91 198.708 2013.51 197.937 2011.59 197.937ZM1869.84 197.937C1868.4 197.937 1866.99 198.394 1865.59 199.307 1864.2 200.221 1862.65 201.733 1860.94 203.845 1859.24 205.956 1857.85 208.12 1856.77 210.336 1855.69 212.552 1854.78 215.382 1854.03 218.826L1853.62 220.713C1853.17 222.809 1852.95 224.846 1852.95 226.822 1852.95 229.188 1853.47 230.895 1854.5 231.943 1855.53 232.991 1857.25 233.515 1859.64 233.515 1860.87 233.515 1862.04 233.313 1863.15 232.909 1864.25 232.505 1865.38 231.838 1866.54 230.91 1867.69 229.982 1868.78 228.761 1869.82 227.249 1870.85 225.736 1871.8 223.872 1872.67 221.656 1873.54 219.44 1874.21 217.067 1874.69 214.536 1875.17 212.005 1875.41 209.587 1875.41 207.281 1875.41 204.166 1874.97 201.831 1874.08 200.273 1873.2 198.716 1871.79 197.937 1869.84 197.937ZM1962.41 196.185C1959.39 196.185 1956.48 197.713 1953.68 200.767 1950.88 203.822 1948.73 207.955 1947.23 213.166 1951.45 213.136 1955.08 212.754 1958.1 212.02 1961.13 211.287 1963.45 210.119 1965.06 208.516 1966.68 206.914 1967.49 204.75 1967.49 202.025 1967.49 200.198 1967.06 198.768 1966.21 197.735 1965.36 196.702 1964.09 196.185 1962.41 196.185ZM1916.41 196.185C1913.39 196.185 1910.48 197.713 1907.68 200.767 1904.88 203.822 1902.73 207.955 1901.23 213.166 1905.45 213.136 1909.08 212.754 1912.1 212.02 1915.13 211.287 1917.45 210.119 1919.06 208.516 1920.68 206.914 1921.49 204.75 1921.49 202.025 1921.49 200.198 1921.06 198.768 1920.21 197.735 1919.36 196.702 1918.09 196.185 1916.41 196.185ZM1992.68 192.637C1994.54 192.637 1996.01 193.25 1997.1 194.478 1998.2 195.706 1998.74 197.338 1998.74 199.375 1998.74 201.052 1998.4 202.819 1997.71 204.676L1998.25 204.855C2003.79 196.739 2009.3 192.681 2014.78 192.681 2018.04 192.681 2020.58 193.924 2022.39 196.41 2024.21 198.896 2025.11 202.4 2025.11 206.922 2025.11 211.863 2024.12 216.722 2022.13 221.499 2020.13 226.276 2017.37 230.064 2013.84 232.864 2010.3 235.664 2006.35 237.064 2001.98 237.064 1997.99 237.064 1994.69 236.196 1992.05 234.459L1989.98 244.297C1989.53 246.423 1989.31 248.175 1989.31 249.553 1989.31 250.87 1989.65 251.806 1990.32 252.36 1990.99 252.914 1992.3 253.281 1994.25 253.461L1993.89 255.662 1980.01 255.662 1990.84 208C1991.47 205.245 1991.78 202.984 1991.78 201.217 1991.78 200.019 1991.59 199.15 1991.2 198.611 1990.81 198.072 1990.19 197.803 1989.35 197.803 1988.43 197.803 1987.45 198.184 1986.41 198.948 1985.38 199.712 1983.96 201.097 1982.17 203.103L1979.61 200.588C1982.3 197.773 1984.59 195.744 1986.46 194.501 1988.33 193.258 1990.4 192.637 1992.68 192.637ZM1964.03 192.637C1967.65 192.637 1970.37 193.37 1972.18 194.838 1974 196.305 1974.9 198.596 1974.9 201.711 1974.9 206.802 1972.51 210.62 1967.74 213.166 1962.96 215.711 1955.87 216.984 1946.47 216.984 1946.11 218.781 1945.93 220.728 1945.93 222.824 1945.93 225.969 1946.54 228.252 1947.77 229.675 1949 231.097 1951 231.808 1953.79 231.808 1956.54 231.808 1959.04 231.209 1961.27 230.012 1963.5 228.814 1965.86 226.972 1968.34 224.486L1971.13 227.406C1968.22 230.61 1965.28 233.021 1962.3 234.638 1959.32 236.256 1955.85 237.064 1951.9 237.064 1947.56 237.064 1944.2 235.739 1941.82 233.089 1939.44 230.438 1938.25 226.747 1938.25 222.015 1938.25 218.811 1938.82 215.374 1939.97 211.706 1941.13 208.037 1942.87 204.743 1945.21 201.823 1947.54 198.903 1950.34 196.642 1953.61 195.04 1956.87 193.438 1960.35 192.637 1964.03 192.637ZM1918.03 192.637C1921.65 192.637 1924.37 193.37 1926.18 194.838 1928 196.305 1928.9 198.596 1928.9 201.711 1928.9 206.802 1926.51 210.62 1921.74 213.166 1916.96 215.711 1909.87 216.984 1900.47 216.984 1900.11 218.781 1899.93 220.728 1899.93 222.824 1899.93 225.969 1900.54 228.252 1901.77 229.675 1903 231.097 1905 231.808 1907.79 231.808 1910.54 231.808 1913.04 231.209 1915.27 230.012 1917.5 228.814 1919.86 226.972 1922.34 224.486L1925.13 227.406C1922.22 230.61 1919.28 233.021 1916.3 234.638 1913.32 236.256 1909.85 237.064 1905.9 237.064 1901.56 237.064 1898.2 235.739 1895.82 233.089 1893.44 230.438 1892.25 226.747 1892.25 222.015 1892.25 218.811 1892.82 215.374 1893.97 211.706 1895.13 208.037 1896.87 204.743 1899.21 201.823 1901.54 198.903 1904.34 196.642 1907.61 195.04 1910.87 193.438 1914.35 192.637 1918.03 192.637ZM1861.98 172.107 1864.58 172.107 1856.68 203.553 1857.26 203.732C1860.17 199.839 1862.89 197.024 1865.44 195.287 1867.98 193.55 1870.53 192.681 1873.07 192.681 1876.34 192.681 1878.88 193.924 1880.69 196.41 1882.5 198.896 1883.41 202.4 1883.41 206.922 1883.41 211.863 1882.41 216.722 1880.42 221.499 1878.43 226.276 1875.66 230.064 1872.13 232.864 1868.6 235.664 1864.64 237.064 1860.27 237.064 1856.29 237.064 1852.75 236.091 1849.67 234.144L1845.54 237.064 1842.66 236.346 1854.3 185C1854.99 181.945 1855.33 179.729 1855.33 178.351 1855.33 177.094 1854.95 176.21 1854.18 175.701 1853.42 175.192 1852.05 174.907 1850.07 174.847L1850.61 172.512Z" fill-rule="evenodd"/><text fill="#000000" fill-opacity="0" font-family="Arial,Arial_MSFontService,sans-serif" font-size="83.5547" x="1842.66" y="245.218">𝑏𝑒𝑒𝑝</text><path d="M1811.66 752.255C1808.64 752.255 1805.73 753.783 1802.93 756.837 1800.13 759.892 1797.98 764.025 1796.48 769.236 1800.7 769.206 1804.33 768.824 1807.35 768.09 1810.37 767.356 1812.7 766.188 1814.31 764.586 1815.93 762.984 1816.74 760.82 1816.74 758.095 1816.74 756.268 1816.31 754.838 1815.46 753.805 1814.6 752.772 1813.34 752.255 1811.66 752.255ZM1724.66 752.255C1721.64 752.255 1718.73 753.783 1715.93 756.837 1713.13 759.892 1710.98 764.025 1709.48 769.236 1713.7 769.206 1717.33 768.824 1720.35 768.09 1723.37 767.356 1725.7 766.188 1727.31 764.586 1728.93 762.984 1729.74 760.82 1729.74 758.095 1729.74 756.268 1729.31 754.838 1728.46 753.805 1727.6 752.772 1726.34 752.255 1724.66 752.255ZM1765.84 748.751C1768.63 748.751 1771.17 748.916 1773.46 749.245 1775.75 749.575 1778.03 750.144 1780.31 750.952L1778.29 760.386 1774.65 760.386C1774.32 757.721 1773.44 755.699 1772.02 754.322 1770.6 752.944 1768.36 752.255 1765.31 752.255 1762.94 752.255 1761.02 752.862 1759.56 754.075 1758.09 755.287 1757.35 756.882 1757.35 758.859 1757.35 759.937 1757.54 760.888 1757.92 761.711 1758.29 762.535 1759.05 763.441 1760.18 764.429 1761.32 765.417 1763.09 766.63 1765.48 768.068 1767.37 769.206 1768.88 770.246 1770.02 771.19 1771.16 772.133 1772.06 773.069 1772.72 773.997 1773.38 774.926 1773.86 775.907 1774.15 776.94 1774.45 777.973 1774.6 779.223 1774.6 780.691 1774.6 783.356 1773.89 785.64 1772.47 787.541 1771.05 789.443 1769.12 790.858 1766.68 791.786 1764.23 792.715 1761.46 793.179 1758.34 793.179 1755.86 793.179 1753.42 792.992 1751.02 792.617 1748.62 792.243 1745.96 791.607 1743.02 790.708L1745.18 780.915 1748.68 780.915C1748.8 783.79 1749.61 785.962 1751.11 787.429 1752.61 788.896 1754.99 789.63 1758.25 789.63 1761.1 789.63 1763.32 788.994 1764.92 787.721 1766.53 786.448 1767.33 784.644 1767.33 782.308 1767.33 780.96 1767.1 779.8 1766.65 778.826 1766.2 777.853 1765.47 776.917 1764.45 776.019 1763.43 775.12 1761.82 773.997 1759.6 772.65 1757.26 771.242 1755.44 769.969 1754.14 768.831 1752.84 767.693 1751.86 766.458 1751.2 765.125 1750.54 763.793 1750.21 762.258 1750.21 760.521 1750.21 758.155 1750.85 756.081 1752.12 754.299 1753.39 752.517 1755.21 751.147 1757.58 750.189 1759.94 749.23 1762.7 748.751 1765.84 748.751ZM1813.28 748.706C1816.9 748.706 1819.62 749.44 1821.43 750.908 1823.24 752.375 1824.15 754.666 1824.15 757.781 1824.15 762.872 1821.76 766.69 1816.99 769.236 1812.21 771.781 1805.12 773.054 1795.72 773.054 1795.36 774.851 1795.18 776.797 1795.18 778.894 1795.18 782.038 1795.79 784.322 1797.02 785.744 1798.25 787.167 1800.25 787.878 1803.04 787.878 1805.79 787.878 1808.29 787.279 1810.52 786.081 1812.75 784.883 1815.11 783.042 1817.59 780.556L1820.38 783.476C1817.47 786.68 1814.53 789.091 1811.55 790.708 1808.57 792.326 1805.1 793.134 1801.15 793.134 1796.81 793.134 1793.45 791.809 1791.07 789.159 1788.69 786.508 1787.49 782.817 1787.49 778.085 1787.49 774.881 1788.07 771.444 1789.22 767.776 1790.38 764.107 1792.12 760.813 1794.46 757.893 1796.79 754.973 1799.59 752.712 1802.86 751.11 1806.12 749.507 1809.6 748.706 1813.28 748.706ZM1726.28 748.706C1729.9 748.706 1732.62 749.44 1734.43 750.908 1736.24 752.375 1737.15 754.666 1737.15 757.781 1737.15 762.872 1734.76 766.69 1729.99 769.236 1725.21 771.781 1718.12 773.054 1708.72 773.054 1708.36 774.851 1708.18 776.797 1708.18 778.894 1708.18 782.038 1708.79 784.322 1710.02 785.744 1711.25 787.167 1713.25 787.878 1716.04 787.878 1718.79 787.878 1721.29 787.279 1723.52 786.081 1725.75 784.883 1728.11 783.042 1730.59 780.556L1733.38 783.476C1730.47 786.68 1727.53 789.091 1724.55 790.708 1721.57 792.326 1718.1 793.134 1714.15 793.134 1709.81 793.134 1706.45 791.809 1704.07 789.159 1701.69 786.508 1700.49 782.817 1700.49 778.085 1700.49 774.881 1701.07 771.444 1702.22 767.776 1703.38 764.107 1705.12 760.813 1707.46 757.893 1709.79 754.973 1712.59 752.712 1715.86 751.11 1719.12 749.507 1722.6 748.706 1726.28 748.706ZM1665.88 748.706C1667.77 748.706 1669.26 749.328 1670.35 750.571 1671.45 751.813 1671.99 753.438 1671.99 755.445 1671.99 756.942 1671.71 758.484 1671.14 760.072L1671.72 760.296C1674.66 756.313 1677.48 753.393 1680.19 751.536 1682.9 749.68 1685.65 748.751 1688.43 748.751 1690.62 748.751 1692.45 748.916 1693.91 749.245L1691.76 759.308 1687.13 759.308C1686.95 758.05 1686.7 757.077 1686.37 756.388 1686.04 755.699 1685.65 755.22 1685.2 754.951 1684.75 754.681 1684.18 754.546 1683.49 754.546 1682.41 754.546 1681.24 755.01 1679.97 755.939 1678.69 756.867 1677.26 758.32 1675.68 760.296 1674.09 762.273 1672.82 764.174 1671.88 766.001 1670.94 767.828 1670.15 770.149 1669.52 772.964L1665.25 792.415 1657.48 792.415 1664 763.935C1664.42 762.138 1664.69 760.745 1664.81 759.757 1664.92 758.769 1664.98 757.945 1664.98 757.286 1664.98 756.089 1664.79 755.22 1664.4 754.681 1664.01 754.142 1663.4 753.872 1662.56 753.872 1661.63 753.872 1660.65 754.254 1659.62 755.018 1658.58 755.782 1657.17 757.167 1655.37 759.173L1652.81 756.658C1655.57 753.783 1657.87 751.739 1659.73 750.526 1661.59 749.313 1663.64 748.706 1665.88 748.706ZM1845.34 738.374 1851.54 738.374 1849.07 749.47 1862.73 749.47 1861.74 754.007 1848.08 754.007 1844.08 771.437C1843.31 774.821 1842.81 777.254 1842.6 778.737 1842.39 780.219 1842.29 781.409 1842.29 782.308 1842.29 786.021 1843.83 787.878 1846.91 787.878 1848.23 787.878 1849.63 787.377 1851.11 786.373 1852.6 785.37 1854.36 783.656 1856.39 781.23L1859 783.925C1856.39 787.07 1853.88 789.391 1851.47 790.888 1849.06 792.385 1846.54 793.134 1843.9 793.134 1837.65 793.134 1834.52 789.975 1834.52 783.656 1834.52 781.649 1834.77 779.538 1835.28 777.322L1840.58 754.007 1833.03 754.007 1833.71 750.908C1835.47 750.878 1836.81 750.743 1837.73 750.503 1838.64 750.264 1839.41 749.934 1840.02 749.515 1840.63 749.096 1841.19 748.497 1841.7 747.718 1842.21 746.939 1842.71 745.944 1843.19 744.731 1843.67 743.518 1844.38 741.399 1845.34 738.374Z" fill-rule="evenodd"/><text fill="#000000" fill-opacity="0" font-family="Arial,Arial_MSFontService,sans-serif" font-size="54.8047" x="1652.81" y="786.328">𝑟𝑒𝑠𝑒𝑡</text><path d="M1921.94 728.132 1928.9 728.132 1896.47 811.732 1889.41 811.732Z" fill-rule="evenodd"/><text fill="#000000" fill-opacity="0" font-family="Arial,Arial_MSFontService,sans-serif" font-size="83.5996" x="1889.41" y="801.282">/</text><path d="M1958.27 748.706C1962.58 748.706 1967.1 749.425 1971.83 750.863L1970.13 759.038 1965.91 759.038C1965.37 754.516 1962.72 752.255 1957.95 752.255 1955.23 752.255 1953 753.026 1951.26 754.569 1949.52 756.111 1948.66 758.23 1948.66 760.925 1948.66 762.872 1949.43 764.429 1950.97 765.597 1952.51 766.765 1954.63 767.349 1957.33 767.349L1963.7 767.349 1962.67 771.976 1958.18 771.976C1955.9 771.976 1954.03 772.126 1952.56 772.425 1951.1 772.725 1949.72 773.211 1948.43 773.885 1947.14 774.559 1946.13 775.278 1945.4 776.041 1944.66 776.805 1944.12 777.666 1943.76 778.624 1943.4 779.583 1943.22 780.676 1943.22 781.904 1943.22 784 1943.94 785.602 1945.38 786.71 1946.81 787.818 1948.88 788.372 1951.58 788.372 1953.94 788.372 1956.22 788.035 1958.43 787.362 1960.63 786.688 1963.12 785.408 1965.91 783.521L1968.11 787.025C1964.99 789.181 1961.93 790.738 1958.92 791.697 1955.91 792.655 1952.76 793.134 1949.46 793.134 1946.47 793.134 1943.9 792.632 1941.76 791.629 1939.62 790.626 1938.02 789.293 1936.95 787.631 1935.89 785.969 1935.36 784.135 1935.36 782.128 1935.36 779.044 1936.56 776.408 1938.95 774.222 1941.35 772.036 1944.79 770.464 1949.28 769.505L1949.37 769.056C1944.16 767.319 1941.56 764.324 1941.56 760.072 1941.56 758.155 1942.16 756.336 1943.35 754.614 1944.55 752.892 1946.43 751.477 1948.99 750.368 1951.55 749.26 1954.64 748.706 1958.27 748.706Z" fill-rule="evenodd"/><text fill="#000000" fill-opacity="0" font-family="Arial,Arial_MSFontService,sans-serif" font-size="44.4277" x="1935.36" y="787.581">𝜀</text><path d="M1417.23 655.443C1414.2 655.443 1411.29 656.97 1408.49 660.025 1405.69 663.079 1403.54 667.212 1402.04 672.423 1406.26 672.393 1409.89 672.011 1412.91 671.278 1415.94 670.544 1418.26 669.376 1419.88 667.774 1421.49 666.171 1422.3 664.008 1422.3 661.282 1422.3 659.456 1421.87 658.026 1421.02 656.992 1420.17 655.959 1418.9 655.443 1417.23 655.443ZM1330.23 655.443C1327.2 655.443 1324.29 656.97 1321.49 660.025 1318.69 663.079 1316.54 667.212 1315.04 672.423 1319.26 672.393 1322.89 672.011 1325.91 671.278 1328.94 670.544 1331.26 669.376 1332.88 667.774 1334.49 666.171 1335.3 664.008 1335.3 661.282 1335.3 659.456 1334.87 658.026 1334.02 656.992 1333.17 655.959 1331.9 655.443 1330.23 655.443ZM1371.41 651.939C1374.19 651.939 1376.73 652.103 1379.02 652.433 1381.31 652.762 1383.6 653.331 1385.87 654.14L1383.85 663.573 1380.21 663.573C1379.88 660.908 1379.01 658.887 1377.58 657.509 1376.16 656.131 1373.92 655.443 1370.87 655.443 1368.5 655.443 1366.59 656.049 1365.12 657.262 1363.65 658.475 1362.92 660.07 1362.92 662.046 1362.92 663.124 1363.1 664.075 1363.48 664.899 1363.85 665.722 1364.61 666.628 1365.75 667.616 1366.88 668.605 1368.65 669.818 1371.05 671.255 1372.93 672.393 1374.45 673.434 1375.58 674.377 1376.72 675.32 1377.62 676.256 1378.28 677.185 1378.94 678.113 1379.42 679.094 1379.72 680.127 1380.02 681.16 1380.17 682.411 1380.17 683.878 1380.17 686.543 1379.46 688.827 1378.03 690.729 1376.61 692.63 1374.68 694.045 1372.24 694.974 1369.8 695.902 1367.02 696.366 1363.9 696.366 1361.42 696.366 1358.98 696.179 1356.58 695.805 1354.19 695.431 1351.52 694.794 1348.59 693.896L1350.74 684.103 1354.25 684.103C1354.37 686.978 1355.17 689.149 1356.67 690.616 1358.17 692.084 1360.55 692.818 1363.81 692.818 1366.66 692.818 1368.88 692.181 1370.49 690.908 1372.09 689.636 1372.89 687.831 1372.89 685.495 1372.89 684.148 1372.66 682.987 1372.22 682.014 1371.77 681.041 1371.03 680.105 1370.01 679.206 1369 678.308 1367.38 677.185 1365.16 675.837 1362.83 674.43 1361.01 673.157 1359.7 672.019 1358.4 670.881 1357.42 669.645 1356.76 668.313 1356.1 666.98 1355.77 665.445 1355.77 663.708 1355.77 661.342 1356.41 659.268 1357.68 657.487 1358.96 655.705 1360.78 654.334 1363.14 653.376 1365.51 652.418 1368.26 651.939 1371.41 651.939ZM1418.84 651.894C1422.47 651.894 1425.18 652.627 1427 654.095 1428.81 655.562 1429.71 657.853 1429.71 660.968 1429.71 666.059 1427.33 669.877 1422.55 672.423 1417.77 674.969 1410.68 676.241 1401.28 676.241 1400.92 678.038 1400.74 679.985 1400.74 682.081 1400.74 685.226 1401.35 687.509 1402.58 688.932 1403.81 690.354 1405.81 691.066 1408.6 691.066 1411.36 691.066 1413.85 690.467 1416.08 689.269 1418.31 688.071 1420.67 686.229 1423.15 683.743L1425.94 686.663C1423.04 689.868 1420.09 692.279 1417.11 693.896 1414.13 695.513 1410.67 696.321 1406.71 696.321 1402.37 696.321 1399.01 694.996 1396.63 692.346 1394.25 689.695 1393.06 686.004 1393.06 681.273 1393.06 678.068 1393.63 674.632 1394.79 670.963 1395.94 667.294 1397.68 664 1400.02 661.08 1402.36 658.16 1405.16 655.899 1408.42 654.297 1411.68 652.695 1415.16 651.894 1418.84 651.894ZM1331.84 651.894C1335.47 651.894 1338.18 652.627 1340 654.095 1341.81 655.562 1342.71 657.853 1342.71 660.968 1342.71 666.059 1340.33 669.877 1335.55 672.423 1330.77 674.969 1323.68 676.241 1314.28 676.241 1313.92 678.038 1313.74 679.985 1313.74 682.081 1313.74 685.226 1314.35 687.509 1315.58 688.932 1316.81 690.354 1318.81 691.066 1321.6 691.066 1324.36 691.066 1326.85 690.467 1329.08 689.269 1331.31 688.071 1333.67 686.229 1336.15 683.743L1338.94 686.663C1336.04 689.868 1333.09 692.279 1330.11 693.896 1327.13 695.513 1323.67 696.321 1319.71 696.321 1315.37 696.321 1312.01 694.996 1309.63 692.346 1307.25 689.695 1306.06 686.004 1306.06 681.273 1306.06 678.068 1306.63 674.632 1307.79 670.963 1308.94 667.294 1310.68 664 1313.02 661.08 1315.36 658.16 1318.16 655.899 1321.42 654.297 1324.68 652.695 1328.16 651.894 1331.84 651.894ZM1271.45 651.894C1273.33 651.894 1274.82 652.515 1275.92 653.758 1277.01 655.001 1277.56 656.625 1277.56 658.632 1277.56 660.129 1277.27 661.672 1276.7 663.259L1277.29 663.484C1280.22 659.5 1283.04 656.581 1285.75 654.724 1288.46 652.867 1291.21 651.939 1294 651.939 1296.18 651.939 1298.01 652.103 1299.48 652.433L1297.32 662.495 1292.69 662.495C1292.51 661.237 1292.26 660.264 1291.93 659.575 1291.6 658.887 1291.21 658.407 1290.76 658.138 1290.31 657.868 1289.74 657.734 1289.06 657.734 1287.98 657.734 1286.8 658.198 1285.53 659.126 1284.26 660.055 1282.83 661.507 1281.24 663.484 1279.65 665.46 1278.39 667.362 1277.44 669.189 1276.5 671.016 1275.71 673.336 1275.08 676.152L1270.82 695.603 1263.05 695.603 1269.56 667.122C1269.98 665.325 1270.25 663.933 1270.37 662.945 1270.49 661.956 1270.55 661.133 1270.55 660.474 1270.55 659.276 1270.35 658.407 1269.96 657.868 1269.57 657.329 1268.96 657.06 1268.12 657.06 1267.19 657.06 1266.21 657.442 1265.18 658.205 1264.15 658.969 1262.73 660.354 1260.93 662.361L1258.37 659.845C1261.13 656.97 1263.43 654.926 1265.29 653.713 1267.15 652.5 1269.2 651.894 1271.45 651.894ZM1450.9 641.562 1457.1 641.562 1454.63 652.657 1468.29 652.657 1467.3 657.195 1453.65 657.195 1449.65 674.624C1448.87 678.008 1448.37 680.442 1448.16 681.924 1447.95 683.406 1447.85 684.597 1447.85 685.495 1447.85 689.209 1449.39 691.066 1452.48 691.066 1453.79 691.066 1455.19 690.564 1456.68 689.561 1458.16 688.557 1459.92 686.843 1461.96 684.417L1464.56 687.112C1461.96 690.257 1459.45 692.578 1457.04 694.075 1454.63 695.573 1452.1 696.321 1449.47 696.321 1443.21 696.321 1440.08 693.162 1440.08 686.843 1440.08 684.836 1440.33 682.725 1440.84 680.509L1446.14 657.195 1438.6 657.195 1439.27 654.095C1441.04 654.065 1442.38 653.93 1443.29 653.691 1444.2 653.451 1444.97 653.122 1445.58 652.702 1446.2 652.283 1446.76 651.684 1447.27 650.905 1447.78 650.127 1448.27 649.131 1448.75 647.918 1449.23 646.705 1449.95 644.586 1450.9 641.562Z" fill-rule="evenodd"/><text fill="#000000" fill-opacity="0" font-family="Arial,Arial_MSFontService,sans-serif" font-size="54.8047" x="1258.37" y="689.516">𝑟𝑒𝑠𝑒𝑡</text><path d="M1527.5 631.32 1534.46 631.32 1502.03 714.919 1494.98 714.919Z" fill-rule="evenodd"/><text fill="#000000" fill-opacity="0" font-family="Arial,Arial_MSFontService,sans-serif" font-size="83.5996" x="1494.98" y="704.469">/</text><path d="M1563.83 651.894C1568.14 651.894 1572.67 652.612 1577.4 654.05L1575.69 662.226 1571.47 662.226C1570.93 657.704 1568.28 655.443 1563.52 655.443 1560.79 655.443 1558.56 656.214 1556.82 657.756 1555.09 659.298 1554.22 661.417 1554.22 664.112 1554.22 666.059 1554.99 667.616 1556.53 668.784 1558.07 669.952 1560.19 670.536 1562.89 670.536L1569.27 670.536 1568.23 675.163 1563.74 675.163C1561.47 675.163 1559.59 675.313 1558.13 675.612 1556.66 675.912 1555.28 676.399 1553.99 677.072 1552.71 677.746 1551.69 678.465 1550.96 679.229 1550.23 679.992 1549.68 680.853 1549.32 681.812 1548.96 682.77 1548.78 683.863 1548.78 685.091 1548.78 687.187 1549.5 688.79 1550.94 689.898 1552.38 691.006 1554.44 691.56 1557.14 691.56 1559.5 691.56 1561.79 691.223 1563.99 690.549 1566.19 689.875 1568.68 688.595 1571.47 686.708L1573.67 690.212C1570.55 692.368 1567.49 693.926 1564.48 694.884 1561.47 695.842 1558.32 696.321 1555.03 696.321 1552.03 696.321 1549.46 695.82 1547.32 694.817 1545.18 693.813 1543.58 692.481 1542.52 690.819 1541.45 689.156 1540.92 687.322 1540.92 685.316 1540.92 682.231 1542.12 679.596 1544.51 677.409 1546.91 675.223 1550.35 673.651 1554.85 672.693L1554.94 672.243C1549.73 670.506 1547.12 667.512 1547.12 663.259 1547.12 661.342 1547.72 659.523 1548.92 657.801 1550.11 656.079 1551.99 654.664 1554.55 653.556 1557.12 652.448 1560.21 651.894 1563.83 651.894Z" fill-rule="evenodd"/><text fill="#000000" fill-opacity="0" font-family="Arial,Arial_MSFontService,sans-serif" font-size="44.4277" x="1540.92" y="690.768">𝜀</text><path d="M2669.87 446.203 2555.43 413.265 2555.44 413.268 2498.31 397.143 2498.33 397.146 2441.33 381.396 2441.35 381.401 2384.53 366.214 2384.55 366.219 2327.99 351.657 2328.02 351.663 2271.7 337.851 2271.74 337.858 2215.74 324.983 2215.77 324.992 2160.09 313.179 2160.13 313.188 2104.88 302.563 2104.93 302.572 2050.18 293.259 2050.22 293.266 2022.97 289.141 2022.99 289.144 1995.93 285.332 1995.97 285.337 1968.97 282.025 1969 282.027 1942.18 279.027 1942.22 279.032 1915.54 276.532 1915.57 276.535 1889.07 274.472 1889.1 274.474 1862.73 272.787 1862.78 272.79 1836.59 271.665 1836.63 271.666 1810.56 270.978 1810.61 270.979 1784.74 270.854 1784.78 270.854 1759.1 271.229 1759.14 271.228 1733.64 272.103 1733.68 272.101 1708.31 273.414 1708.36 273.41 1683.17 275.285 1683.21 275.282 1658.14 277.532 1658.19 277.528 1633.31 280.278 1633.35 280.274 1608.6 283.399 1608.65 283.392 1584.08 287.017 1584.11 287.013 1559.61 290.95 1559.65 290.944 1535.34 295.256 1535.39 295.246 1487.02 304.996 1487.08 304.983 1439.2 316.045 1439.26 316.032 1391.82 328.22 1391.87 328.205 1344.75 341.518 1344.79 341.506 1297.98 355.693 1298.01 355.682 1251.45 370.62 1251.48 370.609 1205.17 386.234 1205.19 386.226 1159.07 402.351 1159.09 402.344 1113.09 418.906 1113.1 418.901 1042.8 444.744 1041.22 440.442 1111.53 414.596 1157.55 398.028 1203.69 381.895 1250.03 366.261 1296.63 351.312 1343.48 337.113 1390.65 323.787 1438.14 311.586 1486.08 300.51 1534.51 290.748 1558.87 286.428 1583.4 282.485 1608 278.854 1632.79 275.724 1657.71 272.97 1682.81 270.716 1708.04 268.838 1733.46 267.523 1759.01 266.646 1784.74 266.271 1810.66 266.396 1836.77 267.085 1863 268.211 1889.41 269.901 1915.95 271.967 1942.67 274.47 1969.52 277.474 1996.55 280.79 2023.64 284.607 2050.93 288.737 2105.72 298.057 2161.02 308.691 2216.74 320.512 2272.78 333.395 2329.12 347.215 2385.71 361.783 2442.54 376.976 2499.55 392.73 2556.69 408.859 2671.13 441.798ZM1051.06 453.918 1020.5 450.5 1041.57 428.106Z"/><path d="M1649.37 177.703 1534.93 144.765 1534.94 144.768 1477.81 128.643 1477.83 128.646 1420.83 112.896 1420.85 112.901 1364.03 97.7139 1364.05 97.7193 1307.49 83.1568 1307.52 83.1632 1251.2 69.3507 1251.24 69.3584 1195.24 56.4834 1195.27 56.4918 1139.59 44.6793 1139.63 44.6879 1084.38 34.0629 1084.43 34.0717 1029.68 24.7592 1029.72 24.7659 1002.47 20.6409 1002.49 20.6443 975.43 16.8318 975.471 16.8371 948.471 13.5246 948.495 13.5275 921.683 10.5275 921.724 10.5317 895.036 8.03168 895.072 8.03476 868.572 5.97226 868.604 5.97449 842.229 4.28699 842.277 4.28956 816.089 3.16455 816.127 3.16587 790.065 2.47837 790.114 2.47914 764.239 2.35414 764.283 2.35392 738.596 2.72892 738.641 2.72782 713.141 3.60282 713.181 3.60111 687.806 4.91361 687.858 4.91034 662.67 6.78534 662.705 6.78249 637.642 9.03249 637.689 9.02779 612.814 11.7778 612.85 11.7736 588.1 14.8986 588.147 14.8921 563.585 18.5171 563.614 18.5126 539.114 22.4501 539.15 22.4439 514.838 26.7564 514.89 26.7465 466.515 36.4965 466.578 36.4828 418.703 47.5453 418.758 47.5321 371.32 59.7196 371.373 59.7054 324.248 73.0179 324.29 73.0057 277.477 87.1932 277.513 87.1821 230.95 102.12 230.983 102.109 184.67 117.734 184.694 117.726 138.569 133.851 138.589 133.844 92.5888 150.406 92.6032 150.401 22.3001 176.244 20.7188 171.942 91.029 146.096 137.046 129.528 183.193 113.395 229.534 97.7606 276.13 82.8122 322.981 68.613 370.153 55.2872 417.644 43.086 465.578 32.0099 514.011 22.2482 538.368 17.9278 562.901 13.985 587.502 10.3544 612.293 7.22416 637.209 4.46962 662.312 2.21595 687.543 0.337731 712.964-0.977136 738.506-1.85359 764.239-2.22925 790.161-2.10402 816.267-1.41537 842.497-0.288524 868.912 1.40152 895.446 3.46664 922.172 5.97025 949.017 8.9739 976.049 12.2904 1003.14 16.1074 1030.43 20.2373 1085.22 29.5574 1140.52 40.1912 1196.24 52.0122 1252.28 64.8953 1308.62 78.7149 1365.21 93.2833 1422.04 108.476 1479.05 124.23 1536.19 140.359 1650.63 173.298ZM30.5554 185.417 0 182 21.0673 159.606Z" transform="matrix(1 0 0 -1 1018.5 816.5)"/><path d="M823 92.5716C670.673 46.0026 518.346-0.566289 381.179 0.00512908 244.012 0.576547 122.006 48.2882 0 95.9999" stroke="#000000" stroke-width="4.58333" stroke-miterlimit="8" fill="none" fill-rule="evenodd" transform="matrix(1 0 0 -1 1022.5 731.5)"/><path d="M718 542C718 519.909 735.909 502 758 502 780.091 502 798 519.909 798 542 798 564.091 780.091 582 758 582 735.909 582 718 564.091 718 542Z" fill-rule="evenodd"/><path d="M930.344 314.704C927.319 314.704 924.407 316.231 921.606 319.286 918.806 322.34 916.658 326.473 915.16 331.684 919.383 331.654 923.006 331.272 926.031 330.538 929.056 329.805 931.377 328.637 932.994 327.035 934.611 325.432 935.42 323.269 935.42 320.543 935.42 318.717 934.993 317.287 934.14 316.253 933.286 315.22 932.021 314.704 930.344 314.704ZM843.344 314.704C840.319 314.704 837.407 316.231 834.606 319.286 831.806 322.34 829.658 326.473 828.16 331.684 832.383 331.654 836.007 331.272 839.031 330.538 842.056 329.805 844.377 328.637 845.994 327.035 847.611 325.432 848.42 323.269 848.42 320.543 848.42 318.717 847.993 317.287 847.14 316.253 846.286 315.22 845.021 314.704 843.344 314.704ZM884.525 311.2C887.311 311.2 889.849 311.364 892.14 311.694 894.431 312.023 896.714 312.592 898.99 313.401L896.969 322.834 893.33 322.834C893.001 320.169 892.125 318.148 890.702 316.77 889.28 315.392 887.041 314.704 883.986 314.704 881.62 314.704 879.704 315.31 878.236 316.523 876.769 317.736 876.035 319.33 876.035 321.307 876.035 322.385 876.222 323.336 876.597 324.16 876.971 324.983 877.727 325.889 878.865 326.877 880.003 327.866 881.77 329.079 884.166 330.516 886.053 331.654 887.565 332.695 888.703 333.638 889.841 334.581 890.74 335.517 891.398 336.446 892.057 337.374 892.536 338.355 892.836 339.388 893.135 340.421 893.285 341.672 893.285 343.139 893.285 345.804 892.574 348.088 891.151 349.99 889.729 351.891 887.797 353.306 885.356 354.235 882.916 355.163 880.138 355.627 877.023 355.627 874.538 355.627 872.097 355.44 869.701 355.066 867.305 354.691 864.64 354.055 861.705 353.157L863.861 343.364 867.365 343.364C867.485 346.239 868.294 348.41 869.791 349.877 871.288 351.345 873.669 352.079 876.934 352.079 879.779 352.079 882.002 351.442 883.604 350.169 885.207 348.897 886.008 347.092 886.008 344.756 886.008 343.409 885.783 342.248 885.334 341.275 884.885 340.302 884.151 339.366 883.133 338.467 882.115 337.569 880.497 336.446 878.281 335.098 875.945 333.69 874.126 332.418 872.823 331.28 871.521 330.142 870.54 328.906 869.881 327.574 869.222 326.241 868.893 324.706 868.893 322.969 868.893 320.603 869.529 318.529 870.802 316.747 872.075 314.966 873.894 313.595 876.26 312.637 878.626 311.679 881.381 311.2 884.525 311.2ZM931.961 311.155C935.585 311.155 938.302 311.888 940.114 313.356 941.926 314.823 942.832 317.114 942.832 320.229 942.832 325.32 940.444 329.138 935.667 331.684 930.89 334.23 923.8 335.502 914.396 335.502 914.037 337.299 913.857 339.246 913.857 341.342 913.857 344.487 914.471 346.77 915.699 348.193 916.927 349.615 918.934 350.327 921.719 350.327 924.474 350.327 926.967 349.728 929.198 348.53 931.429 347.332 933.788 345.49 936.273 343.004L939.059 345.924C936.154 349.129 933.211 351.539 930.231 353.157 927.252 354.774 923.785 355.582 919.832 355.582 915.49 355.582 912.128 354.257 909.747 351.607 907.366 348.956 906.176 345.265 906.176 340.534 906.176 337.329 906.752 333.893 907.905 330.224 909.058 326.555 910.803 323.261 913.139 320.341 915.475 317.421 918.275 315.16 921.539 313.558 924.803 311.956 928.277 311.155 931.961 311.155ZM844.961 311.155C848.585 311.155 851.302 311.888 853.114 313.356 854.926 314.823 855.832 317.114 855.832 320.229 855.832 325.32 853.444 329.138 848.667 331.684 843.89 334.23 836.8 335.502 827.396 335.502 827.037 337.299 826.857 339.246 826.857 341.342 826.857 344.487 827.471 346.77 828.699 348.193 829.927 349.615 831.934 350.327 834.719 350.327 837.474 350.327 839.967 349.728 842.198 348.53 844.429 347.332 846.788 345.49 849.273 343.004L852.059 345.924C849.154 349.129 846.211 351.539 843.231 353.157 840.252 354.774 836.785 355.582 832.832 355.582 828.49 355.582 825.128 354.257 822.747 351.607 820.366 348.956 819.176 345.265 819.176 340.534 819.176 337.329 819.752 333.893 820.905 330.224 822.058 326.555 823.803 323.261 826.139 320.341 828.475 317.421 831.275 315.16 834.539 313.558 837.803 311.956 841.277 311.155 844.961 311.155ZM784.564 311.155C786.451 311.155 787.941 311.776 789.034 313.019 790.127 314.262 790.674 315.886 790.674 317.893 790.674 319.39 790.389 320.933 789.82 322.52L790.404 322.745C793.339 318.761 796.162 315.842 798.872 313.985 801.582 312.128 804.33 311.2 807.115 311.2 809.301 311.2 811.128 311.364 812.596 311.694L810.439 321.756 805.812 321.756C805.633 320.498 805.378 319.525 805.049 318.836 804.719 318.148 804.33 317.668 803.881 317.399 803.432 317.129 802.863 316.995 802.174 316.995 801.096 316.995 799.92 317.459 798.647 318.387 797.375 319.315 795.945 320.768 794.357 322.745 792.77 324.721 791.505 326.623 790.562 328.45 789.618 330.276 788.832 332.597 788.203 335.413L783.936 354.864 776.164 354.864 782.678 326.383C783.097 324.586 783.367 323.194 783.486 322.205 783.606 321.217 783.666 320.394 783.666 319.735 783.666 318.537 783.471 317.668 783.082 317.129 782.693 316.59 782.079 316.321 781.24 316.321 780.312 316.321 779.331 316.703 778.298 317.466 777.265 318.23 775.85 319.615 774.053 321.621L771.492 319.106C774.247 316.231 776.553 314.187 778.41 312.974 780.267 311.761 782.318 311.155 784.564 311.155ZM964.023 300.823 970.223 300.823 967.752 311.918 981.408 311.918 980.42 316.455 966.764 316.455 962.766 333.885C961.987 337.269 961.493 339.703 961.283 341.185 961.074 342.667 960.969 343.858 960.969 344.756 960.969 348.47 962.511 350.327 965.596 350.327 966.913 350.327 968.313 349.825 969.796 348.822 971.278 347.818 973.038 346.104 975.074 343.678L977.68 346.373C975.074 349.518 972.566 351.839 970.155 353.336 967.744 354.834 965.221 355.582 962.586 355.582 956.327 355.582 953.197 352.423 953.197 346.104 953.197 344.097 953.452 341.986 953.961 339.77L959.262 316.455 951.715 316.455 952.389 313.356C954.156 313.326 955.496 313.191 956.409 312.952 957.323 312.712 958.086 312.383 958.7 311.963 959.314 311.544 959.876 310.945 960.385 310.166 960.894 309.388 961.388 308.392 961.867 307.179 962.346 305.966 963.065 303.847 964.023 300.823Z" fill-rule="evenodd"/><text fill="#000000" fill-opacity="0" font-family="Arial,Arial_MSFontService,sans-serif" font-size="54.8047" x="771.492" y="348.777">𝑟𝑒𝑠𝑒𝑡</text><path d="M1040.62 290.58 1047.58 290.58 1015.15 374.18 1008.09 374.18Z" fill-rule="evenodd"/><text fill="#000000" fill-opacity="0" font-family="Arial,Arial_MSFontService,sans-serif" font-size="83.5996" x="1008.09" y="363.73">/</text><path d="M1076.95 311.155C1081.26 311.155 1085.78 311.873 1090.52 313.311L1088.81 321.487 1084.59 321.487C1084.05 316.965 1081.4 314.704 1076.64 314.704 1073.91 314.704 1071.68 315.475 1069.94 317.017 1068.2 318.559 1067.34 320.678 1067.34 323.373 1067.34 325.32 1068.11 326.877 1069.65 328.045 1071.19 329.213 1073.31 329.797 1076.01 329.797L1082.39 329.797 1081.35 334.424 1076.86 334.424C1074.58 334.424 1072.71 334.574 1071.24 334.873 1069.78 335.173 1068.4 335.66 1067.11 336.333 1065.82 337.007 1064.81 337.726 1064.08 338.49 1063.35 339.253 1062.8 340.114 1062.44 341.073 1062.08 342.031 1061.9 343.124 1061.9 344.352 1061.9 346.448 1062.62 348.051 1064.06 349.159 1065.49 350.267 1067.56 350.821 1070.26 350.821 1072.62 350.821 1074.91 350.484 1077.11 349.81 1079.31 349.136 1081.8 347.856 1084.59 345.969L1086.79 349.473C1083.67 351.629 1080.61 353.187 1077.6 354.145 1074.59 355.103 1071.44 355.582 1068.14 355.582 1065.15 355.582 1062.58 355.081 1060.44 354.078 1058.3 353.074 1056.7 351.742 1055.63 350.079 1054.57 348.417 1054.04 346.583 1054.04 344.577 1054.04 341.492 1055.24 338.857 1057.63 336.67 1060.03 334.484 1063.47 332.912 1067.97 331.954L1068.06 331.504C1062.84 329.767 1060.24 326.773 1060.24 322.52 1060.24 320.603 1060.84 318.784 1062.04 317.062 1063.23 315.34 1065.11 313.925 1067.67 312.817 1070.23 311.709 1073.33 311.155 1076.95 311.155Z" fill-rule="evenodd"/><text fill="#000000" fill-opacity="0" font-family="Arial,Arial_MSFontService,sans-serif" font-size="44.4277" x="1054.04" y="350.029">𝜀</text><path d="M989.958 451.416 995.607 440.914 995.568 440.99 1000.63 430.677 1000.59 430.769 1002.78 425.769 1002.73 425.889 1004.54 421.014 1004.49 421.149 1005.93 416.399 1005.88 416.601 1006.82 412.039 1006.78 412.272 1007.22 407.897 1007.21 408.194 1007.08 404.069 1007.14 404.505 1006.26 400.63 1006.4 401.032 1004.83 397.407 1005.06 397.819 1002.69 394.444 1002.99 394.794 999.804 391.794 1000.16 392.067 995.97 389.442 996.255 389.593 991.067 387.28 991.314 387.374 988.127 386.374 988.222 386.402 984.472 385.402 984.582 385.428 980.207 384.491 980.283 384.505 975.408 383.63 975.47 383.641 970.095 382.828 970.12 382.832 964.308 382.019 964.372 382.028 958.185 381.34 958.22 381.344 951.658 380.719 951.69 380.722 937.815 379.597 937.865 379.6 923.052 378.725 923.103 378.727 907.915 378.165 907.953 378.166 892.641 377.854 892.688 377.854 877.563 377.854 877.612 377.854 863.175 378.166 863.232 378.164 849.794 378.789 849.848 378.786 843.598 379.223 843.656 379.219 837.781 379.781 837.824 379.777 832.387 380.402 832.465 380.391 827.465 381.141 827.538 381.129 823.1 381.942 823.192 381.923 819.317 382.798 819.487 382.753 816.237 383.753 816.465 383.669 813.84 384.794 814.135 384.641 812.198 385.829 812.74 385.366 811.615 386.679 812.098 385.743 811.723 387.243 811.709 386.078 812.209 387.89 811.975 387.338 813.225 389.463 813.026 389.176 814.963 391.551 814.808 391.379 817.433 394.004 817.347 393.923 820.535 396.798 820.432 396.71 824.182 399.71 824.129 399.67 828.442 402.92 828.402 402.89 833.089 406.265 833.027 406.222 838.152 409.659 838.121 409.639 849.309 416.889 849.256 416.856 861.444 424.294 861.416 424.277 874.104 431.777 874.078 431.762 886.828 439.074 886.804 439.061 899.241 445.999 899.222 445.988 910.91 452.363 910.902 452.359 916.339 455.296 916.327 455.29 922.943 458.813 920.789 462.858 914.167 459.332 908.719 456.389 897.018 450.007 884.559 443.057 871.784 435.73 859.07 428.214 846.842 420.752 835.614 413.476 830.442 410.007 825.703 406.595 821.344 403.31 817.516 400.247 814.234 397.287 811.485 394.538 809.364 391.938 807.871 389.401 807.131 386.716 807.783 384.107 809.495 382.11 811.882 380.647 814.772 379.408 818.222 378.346 822.229 377.442 826.749 376.614 831.824 375.853 837.323 375.221 843.248 374.653 849.554 374.212 863.047 373.584 877.538 373.271 892.711 373.271 908.066 373.584 923.298 374.148 938.16 375.026 952.076 376.155 958.673 376.783 964.91 377.476 970.767 378.295 976.186 379.114 981.13 380.001 985.598 380.958 989.451 381.986 992.812 383.04 998.268 385.472 1002.78 388.302 1006.3 391.616 1008.95 395.375 1010.69 399.413 1011.66 403.71 1011.8 408.205 1011.33 412.845 1010.35 417.626 1008.86 422.544 1007 427.547 1004.77 432.652 999.663 443.048 993.994 453.587ZM924.208 446.532 942.15 471.5 911.41 470.873Z"/></g></svg>