<?xml version="1.0" encoding="UTF-8" standalone="no"?><svg xmlns="http://www.w3.org/2000/svg" xmlns:xlink="http://www.w3.org/1999/xlink" contentStyleType="text/css" height="559px" preserveAspectRatio="none" style="width:523px;height:559px;background:#FFFFFF;" version="1.1" viewBox="0 0 523 559" width="523px" zoomAndPan="magnify"><defs/><g><rect fill="#FFFFFF" height="538.0156" style="stroke:#181818;stroke-width:1.5;" width="512" x="5" y="15"/><path d="M182,15 L182,24.2969 L172,34.2969 L5,34.2969 " fill="none" style="stroke:#181818;stroke-width:1.5;"/><text fill="#000000" font-family="sans-serif" font-size="14" font-weight="bold" lengthAdjust="spacing" textLength="28" x="8" y="28.9951">seq</text><text fill="#000000" font-family="sans-serif" font-size="14" lengthAdjust="spacing" textLength="135" x="40" y="28.9951">Interactive control</text><rect fill="#FFFFFF" height="294.1953" style="stroke:#181818;stroke-width:1.0;" width="10" x="84" y="149.7266"/><rect fill="#FFFFFF" height="122.5313" style="stroke:#181818;stroke-width:1.0;" width="10" x="256" y="213.9922"/><rect fill="#FFFFFF" height="29.1328" style="stroke:#181818;stroke-width:1.0;" width="10" x="256" y="400.7891"/><rect fill="#FFFFFF" height="64.2656" style="stroke:#181818;stroke-width:1.0;" width="10" x="428" y="243.125"/><line style="stroke:#181818;stroke-width:0.5;stroke-dasharray:5.0,5.0;" x1="88.5" x2="88.5" y1="118.5938" y2="461.9219"/><line style="stroke:#181818;stroke-width:0.5;stroke-dasharray:5.0,5.0;" x1="261" x2="261" y1="118.5938" y2="461.9219"/><line style="stroke:#181818;stroke-width:0.5;stroke-dasharray:5.0,5.0;" x1="432.5" x2="432.5" y1="118.5938" y2="461.9219"/><rect fill="#E2E2F0" height="30.2969" rx="2.5" ry="2.5" style="stroke:#181818;stroke-width:0.5;" width="83" x="47.5" y="87.2969"/><text fill="#000000" font-family="sans-serif" font-size="14" lengthAdjust="spacing" textLength="69" x="54.5" y="107.292">Simulator</text><rect fill="#E2E2F0" height="30.2969" rx="2.5" ry="2.5" style="stroke:#181818;stroke-width:0.5;" width="83" x="47.5" y="460.9219"/><text fill="#000000" font-family="sans-serif" font-size="14" lengthAdjust="spacing" textLength="69" x="54.5" y="480.917">Simulator</text><rect fill="#E2E2F0" height="46.5938" rx="2.5" ry="2.5" style="stroke:#181818;stroke-width:0.5;" width="142" x="190" y="71"/><text fill="#000000" font-family="sans-serif" font-size="14" lengthAdjust="spacing" textLength="79" x="221.5" y="90.9951">Interactive</text><text fill="#000000" font-family="sans-serif" font-size="14" lengthAdjust="spacing" textLength="128" x="197" y="107.292">SimulatorListener</text><rect fill="#E2E2F0" height="46.5938" rx="2.5" ry="2.5" style="stroke:#181818;stroke-width:0.5;" width="142" x="190" y="460.9219"/><text fill="#000000" font-family="sans-serif" font-size="14" lengthAdjust="spacing" textLength="79" x="221.5" y="480.917">Interactive</text><text fill="#000000" font-family="sans-serif" font-size="14" lengthAdjust="spacing" textLength="128" x="197" y="497.2139">SimulatorListener</text><text fill="#000000" font-family="sans-serif" font-size="14" lengthAdjust="spacing" textLength="31" x="414.5" y="115.292">User</text><ellipse cx="433" cy="50.7969" fill="#E2E2F0" rx="8" ry="8" style="stroke:#181818;stroke-width:0.5;"/><path d="M433,58.7969 L433,85.7969 M420,66.7969 L446,66.7969 M433,85.7969 L420,100.7969 M433,85.7969 L446,100.7969 " fill="none" style="stroke:#181818;stroke-width:0.5;"/><text fill="#000000" font-family="sans-serif" font-size="14" lengthAdjust="spacing" textLength="31" x="414.5" y="473.917">User</text><ellipse cx="433" cy="485.7188" fill="#E2E2F0" rx="8" ry="8" style="stroke:#181818;stroke-width:0.5;"/><path d="M433,493.7188 L433,520.7188 M420,501.7188 L446,501.7188 M433,520.7188 L420,535.7188 M433,520.7188 L446,535.7188 " fill="none" style="stroke:#181818;stroke-width:0.5;"/><rect fill="#FFFFFF" height="294.1953" style="stroke:#181818;stroke-width:1.0;" width="10" x="84" y="149.7266"/><rect fill="#FFFFFF" height="122.5313" style="stroke:#181818;stroke-width:1.0;" width="10" x="256" y="213.9922"/><rect fill="#FFFFFF" height="29.1328" style="stroke:#181818;stroke-width:1.0;" width="10" x="256" y="400.7891"/><rect fill="#FFFFFF" height="64.2656" style="stroke:#181818;stroke-width:1.0;" width="10" x="428" y="243.125"/><polygon fill="#181818" points="72,145.7266,82,149.7266,72,153.7266,76,149.7266" style="stroke:#181818;stroke-width:1.0;"/><line style="stroke:#181818;stroke-width:1.0;" x1="10" x2="78" y1="149.7266" y2="149.7266"/><text fill="#000000" font-family="sans-serif" font-size="13" lengthAdjust="spacing" textLength="55" x="17" y="144.6606">simulate</text><path d="M35,162.7266 L35,187.7266 L314,187.7266 L314,172.7266 L304,162.7266 L35,162.7266 " fill="#FEFFDD" style="stroke:#181818;stroke-width:0.5;"/><path d="M304,162.7266 L304,172.7266 L314,172.7266 L304,162.7266 " fill="#FEFFDD" style="stroke:#181818;stroke-width:0.5;"/><text fill="#000000" font-family="sans-serif" font-size="13" lengthAdjust="spacing" textLength="12" x="164.25" y="179.7935">...</text><polygon fill="#181818" points="244,209.9922,254,213.9922,244,217.9922,248,213.9922" style="stroke:#181818;stroke-width:1.0;"/><line style="stroke:#181818;stroke-width:1.0;" x1="94" x2="250" y1="213.9922" y2="213.9922"/><text fill="#000000" font-family="sans-serif" font-size="13" lengthAdjust="spacing" textLength="106" x="101" y="208.9263">moreSuccessors</text><polygon fill="#181818" points="416,239.125,426,243.125,416,247.125,420,243.125" style="stroke:#181818;stroke-width:1.0;"/><line style="stroke:#181818;stroke-width:1.0;" x1="266" x2="422" y1="243.125" y2="243.125"/><text fill="#000000" font-family="sans-serif" font-size="13" lengthAdjust="spacing" textLength="103" x="273" y="238.0591">selectSuccessor</text><path d="M193,256.125 L193,281.125 L500,281.125 L500,266.125 L490,256.125 L193,256.125 " fill="#FEFFDD" style="stroke:#181818;stroke-width:0.5;"/><path d="M490,256.125 L490,266.125 L500,266.125 L490,256.125 " fill="#FEFFDD" style="stroke:#181818;stroke-width:0.5;"/><text fill="#000000" font-family="sans-serif" font-size="13" lengthAdjust="spacing" textLength="286" x="199" y="273.1919">Communicate with the user e.g., via console</text><polygon fill="#181818" points="277,303.3906,267,307.3906,277,311.3906,273,307.3906" style="stroke:#181818;stroke-width:1.0;"/><line style="stroke:#181818;stroke-width:1.0;stroke-dasharray:2.0,2.0;" x1="271" x2="432" y1="307.3906" y2="307.3906"/><text fill="#000000" font-family="sans-serif" font-size="13" lengthAdjust="spacing" textLength="138" x="283" y="302.3247">selectedSuccessorIdx</text><polygon fill="#181818" points="105,332.5234,95,336.5234,105,340.5234,101,336.5234" style="stroke:#181818;stroke-width:1.0;"/><line style="stroke:#181818;stroke-width:1.0;stroke-dasharray:2.0,2.0;" x1="99" x2="260" y1="336.5234" y2="336.5234"/><text fill="#000000" font-family="sans-serif" font-size="13" lengthAdjust="spacing" textLength="138" x="111" y="331.4575">selectedSuccessorIdx</text><path d="M35,349.5234 L35,374.5234 L314,374.5234 L314,359.5234 L304,349.5234 L35,349.5234 " fill="#FEFFDD" style="stroke:#181818;stroke-width:0.5;"/><path d="M304,349.5234 L304,359.5234 L314,359.5234 L304,349.5234 " fill="#FEFFDD" style="stroke:#181818;stroke-width:0.5;"/><text fill="#000000" font-family="sans-serif" font-size="13" lengthAdjust="spacing" textLength="12" x="164.25" y="366.5903">...</text><polygon fill="#181818" points="244,396.7891,254,400.7891,244,404.7891,248,400.7891" style="stroke:#181818;stroke-width:1.0;"/><line style="stroke:#181818;stroke-width:1.0;" x1="94" x2="250" y1="400.7891" y2="400.7891"/><text fill="#000000" font-family="sans-serif" font-size="13" lengthAdjust="spacing" textLength="106" x="101" y="395.7231">simulationEnded</text><polygon fill="#181818" points="105,425.9219,95,429.9219,105,433.9219,101,429.9219" style="stroke:#181818;stroke-width:1.0;"/><line style="stroke:#181818;stroke-width:1.0;stroke-dasharray:2.0,2.0;" x1="99" x2="260" y1="429.9219" y2="429.9219"/><text fill="#000000" font-family="sans-serif" font-size="13" lengthAdjust="spacing" textLength="111" x="111" y="424.856">backtrack = false</text><polygon fill="#181818" points="21,439.9219,11,443.9219,21,447.9219,17,443.9219" style="stroke:#181818;stroke-width:1.0;"/><line style="stroke:#181818;stroke-width:1.0;stroke-dasharray:2.0,2.0;" x1="15" x2="88" y1="443.9219" y2="443.9219"/><!--MD5=[5de6b4dbaf568f10a5c1fcf68ff29fde]
@startuml
mainframe **seq** Interactive control
participant "Simulator" as sim
participant "Interactive\nSimulatorListener" as listener
actor User as user

-> sim : simulate
activate sim

note over sim, listener : ...

sim -> listener : moreSuccessors
activate listener

listener -> user : selectSuccessor
activate user
note over listener, user: Communicate with the user e.g., via console
user - -> listener : selectedSuccessorIdx

deactivate user

listener - -> sim : selectedSuccessorIdx
deactivate listener

note over sim, listener : ...

sim -> listener : simulationEnded
activate listener
listener - -> sim : backtrack = false
deactivate listener

<- - sim
deactivate sim
@enduml

PlantUML version 1.2022.14beta7(Unknown compile time)
(GPL source distribution)
Java Runtime: Java(TM) SE Runtime Environment
JVM: Java HotSpot(TM) 64-Bit Server VM
Default Encoding: UTF-8
Language: en
Country: US
--></g></svg>