<svg width="2752" height="1413" xmlns="http://www.w3.org/2000/svg" xmlns:xlink="http://www.w3.org/1999/xlink" xml:space="preserve" overflow="hidden"><defs><clipPath id="clip0"><rect x="667" y="538" width="2752" height="1413"/></clipPath></defs><g clip-path="url(#clip0)" transform="translate(-667 -538)"><path d="M1615.5 1396 2043 1251.5 2470.5 1396 2043 1540.5Z" stroke="#000000" stroke-width="4.58333" stroke-miterlimit="8" fill="#FFFFFF" fill-rule="evenodd"/><text font-family="Calibri,Calibri_MSFontService,sans-serif" font-weight="400" font-size="73" transform="matrix(1 0 0 1 1946.08 1376)">Model<tspan font-size="73" x="-33.2291" y="88">checking</tspan></text><rect x="669.5" y="1698.5" width="1157" height="233" stroke="#000000" stroke-width="4.58333" stroke-miterlimit="8" fill="#B6D7A8"/><text font-family="Calibri,Calibri_MSFontService,sans-serif" font-style="italic" font-weight="400" font-size="73" transform="matrix(1 0 0 1 925.718 1795)">Proof<tspan font-style="normal" font-size="73" x="177.604" y="0">that</tspan><tspan font-style="normal" font-size="73" x="316.823" y="0">the</tspan><tspan font-style="normal" font-size="73" x="433.125" y="0">system</tspan><tspan font-size="73" x="-52.4333" y="88">satisfies</tspan><tspan font-style="normal" font-size="73" x="203.087" y="88">the</tspan><tspan font-style="normal" font-size="73" x="319.39" y="88">requirement</tspan></text><rect x="2260.5" y="1701.5" width="1156" height="234" stroke="#000000" stroke-width="4.58333" stroke-miterlimit="8" fill="#EA9999"/><text font-family="Calibri,Calibri_MSFontService,sans-serif" font-style="italic" font-weight="400" font-size="73" transform="matrix(1 0 0 1 2402.98 1799)">Counterexample<tspan font-style="normal" font-size="73" x="504.74" y="0">in </tspan><tspan font-style="normal" font-size="73" x="576.354" y="0">which</tspan><tspan font-style="normal" font-size="73" x="770" y="0">the</tspan><tspan font-style="normal" font-size="73" x="-48.125" y="88">system</tspan><tspan font-size="73" x="178.75" y="88">violates</tspan><tspan font-style="normal" font-size="73" x="425.104" y="88">the</tspan><tspan font-style="normal" font-size="73" x="541.406" y="88">requirement</tspan></text><rect x="669.5" y="856.5" width="1157" height="211" stroke="#000000" stroke-width="3.4375" stroke-linejoin="round" stroke-miterlimit="10" fill="none"/><text font-family="Arial,Arial_MSFontService,sans-serif" font-weight="400" font-size="73" transform="matrix(1 0 0 1 1023.38 944)">Formal<tspan font-size="73" x="248.646" y="0">model</tspan><tspan font-size="73" x="-87.9312" y="88">(</tspan><tspan font-size="73" x="-63.2958" y="88">e.g</tspan><tspan font-size="73" x="38.6834" y="88">., XSTS </tspan><tspan font-size="73" x="311.965" y="88">model</tspan><tspan font-size="73" x="511.34" y="88">)</tspan></text><rect x="2260.5" y="856.5" width="1156" height="211" stroke="#000000" stroke-width="3.4375" stroke-linejoin="round" stroke-miterlimit="10" fill="none"/><text font-family="Arial,Arial_MSFontService,sans-serif" font-weight="400" font-size="73" transform="matrix(1 0 0 1 2384.95 944)">Formal<tspan font-size="73" x="248.646" y="0">(</tspan><tspan font-size="73" x="273.281" y="0">safety</tspan><tspan font-size="73" x="469.219" y="0">) </tspan><tspan font-size="73" x="514.479" y="0">requirement</tspan><tspan font-size="73" x="-69.0479" y="88">(</tspan><tspan font-size="73" x="-44.4124" y="88">e.</tspan><tspan font-size="73" x="16.8897" y="88">g</tspan><tspan font-size="73" x="57.5667" y="88">., </tspan><tspan font-size="73" x="119.442" y="88">temporal</tspan><tspan font-size="73" x="425.379" y="88">logic</tspan><tspan font-size="73" x="596.108" y="88">expression</tspan><tspan font-size="73" x="950.171" y="88">)</tspan></text><rect x="669.5" y="540.5" width="1157" height="154" stroke="#000000" stroke-width="4.58333" stroke-miterlimit="8" fill="#FFFFFF"/><text font-family="Calibri,Calibri_MSFontService,sans-serif" font-weight="400" font-size="73" transform="matrix(1 0 0 1 964.378 642)">System <tspan font-size="73" x="232.031" y="0">description</tspan></text><rect x="2260.5" y="540.5" width="1156" height="154" stroke="#000000" stroke-width="4.58333" stroke-miterlimit="8" fill="#FFFFFF"/><text font-family="Calibri,Calibri_MSFontService,sans-serif" font-weight="400" font-size="73" transform="matrix(1 0 0 1 2514.41 642)">Informal<tspan font-size="73" x="270.417" y="0">requirement</tspan></text><path d="M1249.79 694.5 1249.79 833.484 1245.21 833.484 1245.21 694.5ZM1261.25 828.901 1247.5 856.401 1233.75 828.901Z"/><path d="M2840.79 694.5 2840.79 833.484 2836.21 833.484 2836.21 694.5ZM2852.25 828.901 2838.5 856.401 2824.75 828.901Z"/><path d="M2470.5 1393.21 2840.29 1393.21 2840.29 1678.66 2835.7 1678.66 2835.7 1395.5 2838 1397.79 2470.5 1397.79ZM2851.75 1674.08 2838 1701.58 2824.25 1674.08Z"/><path d="M0-2.29167 369.787-2.29167 369.787 279.339 365.204 279.339 365.204 0 367.495 2.29167 0 2.29167ZM381.245 274.755 367.495 302.255 353.745 274.755Z" transform="matrix(-1 1.22465e-16 1.22465e-16 1 1615 1395.5)"/><path d="M1248.29 1065.35 1864.92 1292.81 1863.33 1297.11 1246.71 1069.65ZM1864.58 1280.47 1885.62 1302.89 1855.06 1306.27Z"/><path d="M0.726017-2.17362 616.903 203.637 615.451 207.984-0.726017 2.17362ZM616.186 191.317 637.913 213.071 607.474 217.4Z" transform="matrix(-1 0 0 1 2838.41 1093.5)"/></g></svg>