<?xml version="1.0" encoding="UTF-8" standalone="no"?><svg xmlns="http://www.w3.org/2000/svg" xmlns:xlink="http://www.w3.org/1999/xlink" contentStyleType="text/css" height="1342px" preserveAspectRatio="none" style="width:478px;height:1342px;background:#FFFFFF;" version="1.1" viewBox="0 0 478 1342" width="478px" zoomAndPan="magnify"><defs/><g><rect fill="#FFFFFF" height="1321.375" style="stroke:#181818;stroke-width:1.5;" width="467" x="5" y="15"/><path d="M123,15 L123,24.2969 L113,34.2969 L5,34.2969 " fill="none" style="stroke:#181818;stroke-width:1.5;"/><text fill="#000000" font-family="sans-serif" font-size="14" font-weight="bold" lengthAdjust="spacing" textLength="28" x="8" y="28.9951">seq</text><text fill="#000000" font-family="sans-serif" font-size="14" lengthAdjust="spacing" textLength="76" x="40" y="28.9951">Simulation</text><rect fill="#FFFFFF" height="1167.0547" style="stroke:#181818;stroke-width:1.0;" width="10" x="144" y="105.7266"/><rect fill="#FFFFFF" height="14" style="stroke:#181818;stroke-width:1.0;" width="10" x="339" y="134.8594"/><rect fill="#FFFFFF" height="988.2578" style="stroke:#181818;stroke-width:1.0;" width="10" x="339" y="293.5234"/><rect fill="#FFFFFF" height="29.1328" style="stroke:#181818;stroke-width:1.0;" width="10" x="344" y="338.6563"/><rect fill="#FFFFFF" height="29.1328" style="stroke:#181818;stroke-width:1.0;" width="10" x="344" y="471.1875"/><rect fill="#FFFFFF" height="14" style="stroke:#181818;stroke-width:1.0;" width="10" x="344" y="587.3906"/><rect fill="#FFFFFF" height="14" style="stroke:#181818;stroke-width:1.0;" width="10" x="344" y="704.7891"/><rect fill="#FFFFFF" height="14" style="stroke:#181818;stroke-width:1.0;" width="10" x="344" y="822.1875"/><rect fill="#FFFFFF" height="14" style="stroke:#181818;stroke-width:1.0;" width="10" x="344" y="981.7188"/><rect fill="#FFFFFF" height="29.1328" style="stroke:#181818;stroke-width:1.0;" width="10" x="344" y="1126.1172"/><rect fill="none" height="1095.9219" style="stroke:#000000;stroke-width:1.5;" width="426" x="19" y="163.8594"/><rect fill="none" height="866.8594" style="stroke:#000000;stroke-width:1.5;" width="347.5" x="87.5" y="187.9922"/><rect fill="none" height="120.5313" style="stroke:#000000;stroke-width:1.5;" width="327.5" x="97.5" y="255.2578"/><rect fill="none" height="219.6016" style="stroke:#000000;stroke-width:1.5;" width="327.5" x="97.5" y="389.7891"/><rect fill="none" height="60.2656" style="stroke:#000000;stroke-width:1.5;" width="327.5" x="97.5" y="666.5234"/><rect fill="none" height="60.2656" style="stroke:#000000;stroke-width:1.5;" width="327.5" x="97.5" y="783.9219"/><rect fill="none" height="104.3984" style="stroke:#000000;stroke-width:1.5;" width="327.5" x="97.5" y="943.4531"/><rect fill="none" height="82.5313" style="stroke:#000000;stroke-width:1.5;" width="239" x="29" y="1170.25"/><line style="stroke:#181818;stroke-width:0.5;stroke-dasharray:5.0,5.0;" x1="148.5" x2="148.5" y1="74.5938" y2="1290.7813"/><line style="stroke:#181818;stroke-width:0.5;stroke-dasharray:5.0,5.0;" x1="344" x2="344" y1="74.5938" y2="1290.7813"/><rect fill="#E2E2F0" height="30.2969" rx="2.5" ry="2.5" style="stroke:#181818;stroke-width:0.5;" width="83" x="107.5" y="43.2969"/><text fill="#000000" font-family="sans-serif" font-size="14" lengthAdjust="spacing" textLength="69" x="114.5" y="63.292">Simulator</text><rect fill="#E2E2F0" height="30.2969" rx="2.5" ry="2.5" style="stroke:#181818;stroke-width:0.5;" width="83" x="107.5" y="1289.7813"/><text fill="#000000" font-family="sans-serif" font-size="14" lengthAdjust="spacing" textLength="69" x="114.5" y="1309.7764">Simulator</text><rect fill="#E2E2F0" height="30.2969" rx="2.5" ry="2.5" style="stroke:#181818;stroke-width:0.5;" width="142" x="273" y="43.2969"/><text fill="#000000" font-family="sans-serif" font-size="14" lengthAdjust="spacing" textLength="128" x="280" y="63.292">SimulatorListener</text><rect fill="#E2E2F0" height="30.2969" rx="2.5" ry="2.5" style="stroke:#181818;stroke-width:0.5;" width="142" x="273" y="1289.7813"/><text fill="#000000" font-family="sans-serif" font-size="14" lengthAdjust="spacing" textLength="128" x="280" y="1309.7764">SimulatorListener</text><rect fill="#FFFFFF" height="1167.0547" style="stroke:#181818;stroke-width:1.0;" width="10" x="144" y="105.7266"/><rect fill="#FFFFFF" height="14" style="stroke:#181818;stroke-width:1.0;" width="10" x="339" y="134.8594"/><rect fill="#FFFFFF" height="988.2578" style="stroke:#181818;stroke-width:1.0;" width="10" x="339" y="293.5234"/><rect fill="#FFFFFF" height="29.1328" style="stroke:#181818;stroke-width:1.0;" width="10" x="344" y="338.6563"/><rect fill="#FFFFFF" height="29.1328" style="stroke:#181818;stroke-width:1.0;" width="10" x="344" y="471.1875"/><rect fill="#FFFFFF" height="14" style="stroke:#181818;stroke-width:1.0;" width="10" x="344" y="587.3906"/><rect fill="#FFFFFF" height="14" style="stroke:#181818;stroke-width:1.0;" width="10" x="344" y="704.7891"/><rect fill="#FFFFFF" height="14" style="stroke:#181818;stroke-width:1.0;" width="10" x="344" y="822.1875"/><rect fill="#FFFFFF" height="14" style="stroke:#181818;stroke-width:1.0;" width="10" x="344" y="981.7188"/><rect fill="#FFFFFF" height="29.1328" style="stroke:#181818;stroke-width:1.0;" width="10" x="344" y="1126.1172"/><polygon fill="#181818" points="132,101.7266,142,105.7266,132,109.7266,136,105.7266" style="stroke:#181818;stroke-width:1.0;"/><line style="stroke:#181818;stroke-width:1.0;" x1="10" x2="138" y1="105.7266" y2="105.7266"/><text fill="#000000" font-family="sans-serif" font-size="13" lengthAdjust="spacing" textLength="55" x="17" y="100.6606">simulate</text><polygon fill="#181818" points="327,130.8594,337,134.8594,327,138.8594,331,134.8594" style="stroke:#181818;stroke-width:1.0;"/><line style="stroke:#181818;stroke-width:1.0;" x1="154" x2="333" y1="134.8594" y2="134.8594"/><text fill="#000000" font-family="sans-serif" font-size="13" lengthAdjust="spacing" textLength="113" x="161" y="129.7935">simulationStarted</text><polygon fill="#181818" points="165,144.8594,155,148.8594,165,152.8594,161,148.8594" style="stroke:#181818;stroke-width:1.0;"/><line style="stroke:#181818;stroke-width:1.0;stroke-dasharray:2.0,2.0;" x1="159" x2="343" y1="148.8594" y2="148.8594"/><path d="M19,163.8594 L97,163.8594 L97,170.9922 L87,180.9922 L19,180.9922 L19,163.8594 " fill="#EEEEEE" style="stroke:#000000;stroke-width:1.5;"/><rect fill="none" height="1095.9219" style="stroke:#000000;stroke-width:1.5;" width="426" x="19" y="163.8594"/><text fill="#000000" font-family="sans-serif" font-size="13" font-weight="bold" lengthAdjust="spacing" textLength="33" x="34" y="176.9263">loop</text><text fill="#000000" font-family="sans-serif" font-size="11" font-weight="bold" lengthAdjust="spacing" textLength="67" x="112" y="176.0698">[traverse]</text><path d="M87.5,187.9922 L165.5,187.9922 L165.5,195.125 L155.5,205.125 L87.5,205.125 L87.5,187.9922 " fill="#EEEEEE" style="stroke:#000000;stroke-width:1.5;"/><rect fill="none" height="866.8594" style="stroke:#000000;stroke-width:1.5;" width="347.5" x="87.5" y="187.9922"/><text fill="#000000" font-family="sans-serif" font-size="13" font-weight="bold" lengthAdjust="spacing" textLength="33" x="102.5" y="201.0591">loop</text><text fill="#000000" font-family="sans-serif" font-size="11" font-weight="bold" lengthAdjust="spacing" textLength="117" x="180.5" y="200.2026">[|successors| &gt; 0]</text><rect fill="#EEEEEE" height="3" style="stroke:#EEEEEE;stroke-width:1.0;" width="445" x="10" y="225.6914"/><line style="stroke:#000000;stroke-width:1.0;" x1="10" x2="455" y1="225.6914" y2="225.6914"/><line style="stroke:#000000;stroke-width:1.0;" x1="10" x2="455" y1="228.6914" y2="228.6914"/><rect fill="#EEEEEE" height="23.1328" style="stroke:#000000;stroke-width:2.0;" width="146" x="159.5" y="215.125"/><text fill="#000000" font-family="sans-serif" font-size="13" font-weight="bold" lengthAdjust="spacing" textLength="127" x="165.5" y="231.1919">Select successor</text><path d="M97.5,255.2578 L163.5,255.2578 L163.5,262.3906 L153.5,272.3906 L97.5,272.3906 L97.5,255.2578 " fill="#EEEEEE" style="stroke:#000000;stroke-width:1.5;"/><rect fill="none" height="120.5313" style="stroke:#000000;stroke-width:1.5;" width="327.5" x="97.5" y="255.2578"/><text fill="#000000" font-family="sans-serif" font-size="13" font-weight="bold" lengthAdjust="spacing" textLength="21" x="112.5" y="268.3247">alt</text><text fill="#000000" font-family="sans-serif" font-size="11" font-weight="bold" lengthAdjust="spacing" textLength="125" x="178.5" y="267.4683">[|successors| == 1]</text><polygon fill="#181818" points="327,289.5234,337,293.5234,327,297.5234,331,293.5234" style="stroke:#181818;stroke-width:1.0;"/><line style="stroke:#181818;stroke-width:1.0;" x1="154" x2="333" y1="293.5234" y2="293.5234"/><text fill="#000000" font-family="sans-serif" font-size="13" lengthAdjust="spacing" textLength="89" x="161" y="288.4575">oneSuccessor</text><polygon fill="#181818" points="165,303.5234,155,307.5234,165,311.5234,161,307.5234" style="stroke:#181818;stroke-width:1.0;"/><line style="stroke:#181818;stroke-width:1.0;stroke-dasharray:2.0,2.0;" x1="159" x2="338" y1="307.5234" y2="307.5234"/><line style="stroke:#000000;stroke-width:1.0;stroke-dasharray:2.0,2.0;" x1="97.5" x2="425" y1="316.5234" y2="316.5234"/><polygon fill="#181818" points="332,334.6563,342,338.6563,332,342.6563,336,338.6563" style="stroke:#181818;stroke-width:1.0;"/><line style="stroke:#181818;stroke-width:1.0;" x1="154" x2="338" y1="338.6563" y2="338.6563"/><text fill="#000000" font-family="sans-serif" font-size="13" lengthAdjust="spacing" textLength="106" x="161" y="333.5903">moreSuccessors</text><polygon fill="#181818" points="165,363.7891,155,367.7891,165,371.7891,161,367.7891" style="stroke:#181818;stroke-width:1.0;"/><line style="stroke:#181818;stroke-width:1.0;stroke-dasharray:2.0,2.0;" x1="159" x2="338" y1="367.7891" y2="367.7891"/><text fill="#000000" font-family="sans-serif" font-size="13" lengthAdjust="spacing" textLength="138" x="171" y="362.7231">selectedSuccessorIdx</text><path d="M97.5,389.7891 L169.5,389.7891 L169.5,396.9219 L159.5,406.9219 L97.5,406.9219 L97.5,389.7891 " fill="#EEEEEE" style="stroke:#000000;stroke-width:1.5;"/><rect fill="none" height="219.6016" style="stroke:#000000;stroke-width:1.5;" width="327.5" x="97.5" y="389.7891"/><text fill="#000000" font-family="sans-serif" font-size="13" font-weight="bold" lengthAdjust="spacing" textLength="27" x="112.5" y="402.856">opt</text><text fill="#000000" font-family="sans-serif" font-size="11" font-weight="bold" lengthAdjust="spacing" textLength="49" x="184.5" y="401.9995">[havoc]</text><rect fill="#EEEEEE" height="3" style="stroke:#EEEEEE;stroke-width:1.0;" width="445" x="10" y="427.4883"/><line style="stroke:#000000;stroke-width:1.0;" x1="10" x2="455" y1="427.4883" y2="427.4883"/><line style="stroke:#000000;stroke-width:1.0;" x1="10" x2="455" y1="430.4883" y2="430.4883"/><rect fill="#EEEEEE" height="23.1328" style="stroke:#000000;stroke-width:2.0;" width="119" x="173" y="416.9219"/><text fill="#000000" font-family="sans-serif" font-size="13" font-weight="bold" lengthAdjust="spacing" textLength="100" x="179" y="432.9888">Handle havoc</text><polygon fill="#181818" points="332,467.1875,342,471.1875,332,475.1875,336,471.1875" style="stroke:#181818;stroke-width:1.0;"/><line style="stroke:#181818;stroke-width:1.0;" x1="154" x2="338" y1="471.1875" y2="471.1875"/><text fill="#000000" font-family="sans-serif" font-size="13" lengthAdjust="spacing" textLength="136" x="161" y="466.1216">askForConcreteValue</text><polygon fill="#181818" points="165,496.3203,155,500.3203,165,504.3203,161,500.3203" style="stroke:#181818;stroke-width:1.0;"/><line style="stroke:#181818;stroke-width:1.0;stroke-dasharray:2.0,2.0;" x1="159" x2="338" y1="500.3203" y2="500.3203"/><text fill="#000000" font-family="sans-serif" font-size="13" lengthAdjust="spacing" textLength="92" x="171" y="495.2544">concreteValue</text><line style="stroke:#000000;stroke-width:1.0;stroke-dasharray:2.0,2.0;" x1="97.5" x2="425" y1="509.3203" y2="509.3203"/><text fill="#000000" font-family="sans-serif" font-size="11" font-weight="bold" lengthAdjust="spacing" textLength="116" x="102.5" y="519.5308">[|successors| &gt; 1]</text><rect fill="#EEEEEE" height="3" style="stroke:#EEEEEE;stroke-width:1.0;" width="445" x="10" y="543.6914"/><line style="stroke:#000000;stroke-width:1.0;" x1="10" x2="455" y1="543.6914" y2="543.6914"/><line style="stroke:#000000;stroke-width:1.0;" x1="10" x2="455" y1="546.6914" y2="546.6914"/><rect fill="#EEEEEE" height="23.1328" style="stroke:#000000;stroke-width:2.0;" width="164" x="150.5" y="533.125"/><text fill="#000000" font-family="sans-serif" font-size="13" font-weight="bold" lengthAdjust="spacing" textLength="145" x="156.5" y="549.1919">Successor selected</text><polygon fill="#181818" points="332,583.3906,342,587.3906,332,591.3906,336,587.3906" style="stroke:#181818;stroke-width:1.0;"/><line style="stroke:#181818;stroke-width:1.0;" x1="154" x2="338" y1="587.3906" y2="587.3906"/><text fill="#000000" font-family="sans-serif" font-size="13" lengthAdjust="spacing" textLength="119" x="161" y="582.3247">successorSelected</text><polygon fill="#181818" points="165,597.3906,155,601.3906,165,605.3906,161,601.3906" style="stroke:#181818;stroke-width:1.0;"/><line style="stroke:#181818;stroke-width:1.0;stroke-dasharray:2.0,2.0;" x1="159" x2="338" y1="601.3906" y2="601.3906"/><rect fill="#EEEEEE" height="3" style="stroke:#EEEEEE;stroke-width:1.0;" width="445" x="10" y="636.957"/><line style="stroke:#000000;stroke-width:1.0;" x1="10" x2="455" y1="636.957" y2="636.957"/><line style="stroke:#000000;stroke-width:1.0;" x1="10" x2="455" y1="639.957" y2="639.957"/><rect fill="#EEEEEE" height="23.1328" style="stroke:#000000;stroke-width:2.0;" width="201" x="132" y="626.3906"/><text fill="#000000" font-family="sans-serif" font-size="13" font-weight="bold" lengthAdjust="spacing" textLength="182" x="138" y="642.4575">Tracked variables check</text><path d="M97.5,666.5234 L169.5,666.5234 L169.5,673.6563 L159.5,683.6563 L97.5,683.6563 L97.5,666.5234 " fill="#EEEEEE" style="stroke:#000000;stroke-width:1.5;"/><rect fill="none" height="60.2656" style="stroke:#000000;stroke-width:1.5;" width="327.5" x="97.5" y="666.5234"/><text fill="#000000" font-family="sans-serif" font-size="13" font-weight="bold" lengthAdjust="spacing" textLength="27" x="112.5" y="679.5903">opt</text><text fill="#000000" font-family="sans-serif" font-size="11" font-weight="bold" lengthAdjust="spacing" textLength="216" x="184.5" y="678.7339">[tracked variable value changed]</text><polygon fill="#181818" points="332,700.7891,342,704.7891,332,708.7891,336,704.7891" style="stroke:#181818;stroke-width:1.0;"/><line style="stroke:#181818;stroke-width:1.0;" x1="154" x2="338" y1="704.7891" y2="704.7891"/><text fill="#000000" font-family="sans-serif" font-size="13" lengthAdjust="spacing" textLength="92" x="161" y="699.7231">valueChanged</text><polygon fill="#181818" points="165,714.7891,155,718.7891,165,722.7891,161,718.7891" style="stroke:#181818;stroke-width:1.0;"/><line style="stroke:#181818;stroke-width:1.0;stroke-dasharray:2.0,2.0;" x1="159" x2="338" y1="718.7891" y2="718.7891"/><rect fill="#EEEEEE" height="3" style="stroke:#EEEEEE;stroke-width:1.0;" width="445" x="10" y="754.3555"/><line style="stroke:#000000;stroke-width:1.0;" x1="10" x2="455" y1="754.3555" y2="754.3555"/><line style="stroke:#000000;stroke-width:1.0;" x1="10" x2="455" y1="757.3555" y2="757.3555"/><rect fill="#EEEEEE" height="23.1328" style="stroke:#000000;stroke-width:2.0;" width="127" x="169" y="743.7891"/><text fill="#000000" font-family="sans-serif" font-size="13" font-weight="bold" lengthAdjust="spacing" textLength="108" x="175" y="759.856">Commit check</text><path d="M97.5,783.9219 L169.5,783.9219 L169.5,791.0547 L159.5,801.0547 L97.5,801.0547 L97.5,783.9219 " fill="#EEEEEE" style="stroke:#000000;stroke-width:1.5;"/><rect fill="none" height="60.2656" style="stroke:#000000;stroke-width:1.5;" width="327.5" x="97.5" y="783.9219"/><text fill="#000000" font-family="sans-serif" font-size="13" font-weight="bold" lengthAdjust="spacing" textLength="27" x="112.5" y="796.9888">opt</text><text fill="#000000" font-family="sans-serif" font-size="11" font-weight="bold" lengthAdjust="spacing" textLength="93" x="184.5" y="796.1323">[stable state]</text><polygon fill="#181818" points="332,818.1875,342,822.1875,332,826.1875,336,822.1875" style="stroke:#181818;stroke-width:1.0;"/><line style="stroke:#181818;stroke-width:1.0;" x1="154" x2="338" y1="822.1875" y2="822.1875"/><text fill="#000000" font-family="sans-serif" font-size="13" lengthAdjust="spacing" textLength="161" x="161" y="817.1216">splitTransitionCommitted</text><polygon fill="#181818" points="165,832.1875,155,836.1875,165,840.1875,161,836.1875" style="stroke:#181818;stroke-width:1.0;"/><line style="stroke:#181818;stroke-width:1.0;stroke-dasharray:2.0,2.0;" x1="159" x2="338" y1="836.1875" y2="836.1875"/><rect fill="#EEEEEE" height="3" style="stroke:#EEEEEE;stroke-width:1.0;" width="445" x="10" y="871.7539"/><line style="stroke:#000000;stroke-width:1.0;" x1="10" x2="455" y1="871.7539" y2="871.7539"/><line style="stroke:#000000;stroke-width:1.0;" x1="10" x2="455" y1="874.7539" y2="874.7539"/><rect fill="#EEEEEE" height="23.1328" style="stroke:#000000;stroke-width:2.0;" width="111" x="177" y="861.1875"/><text fill="#000000" font-family="sans-serif" font-size="13" font-weight="bold" lengthAdjust="spacing" textLength="92" x="183" y="877.2544">Cover check</text><line style="stroke:#181818;stroke-width:1.0;" x1="154" x2="196" y1="915.4531" y2="915.4531"/><line style="stroke:#181818;stroke-width:1.0;" x1="196" x2="196" y1="915.4531" y2="928.4531"/><line style="stroke:#181818;stroke-width:1.0;" x1="155" x2="196" y1="928.4531" y2="928.4531"/><polygon fill="#181818" points="165,924.4531,155,928.4531,165,932.4531,161,928.4531" style="stroke:#181818;stroke-width:1.0;"/><text fill="#000000" font-family="sans-serif" font-size="13" lengthAdjust="spacing" textLength="33" x="161" y="910.3872">close</text><path d="M97.5,943.4531 L163.5,943.4531 L163.5,950.5859 L153.5,960.5859 L97.5,960.5859 L97.5,943.4531 " fill="#EEEEEE" style="stroke:#000000;stroke-width:1.5;"/><rect fill="none" height="104.3984" style="stroke:#000000;stroke-width:1.5;" width="327.5" x="97.5" y="943.4531"/><text fill="#000000" font-family="sans-serif" font-size="13" font-weight="bold" lengthAdjust="spacing" textLength="21" x="112.5" y="956.52">alt</text><text fill="#000000" font-family="sans-serif" font-size="11" font-weight="bold" lengthAdjust="spacing" textLength="100" x="178.5" y="955.6636">[covered node]</text><polygon fill="#181818" points="332,977.7188,342,981.7188,332,985.7188,336,981.7188" style="stroke:#181818;stroke-width:1.0;"/><line style="stroke:#181818;stroke-width:1.0;" x1="154" x2="338" y1="981.7188" y2="981.7188"/><text fill="#000000" font-family="sans-serif" font-size="13" lengthAdjust="spacing" textLength="96" x="161" y="976.6528">nodeIsCovered</text><polygon fill="#181818" points="165,991.7188,155,995.7188,165,999.7188,161,995.7188" style="stroke:#181818;stroke-width:1.0;"/><line style="stroke:#181818;stroke-width:1.0;stroke-dasharray:2.0,2.0;" x1="159" x2="338" y1="995.7188" y2="995.7188"/><line style="stroke:#000000;stroke-width:1.0;stroke-dasharray:2.0,2.0;" x1="97.5" x2="425" y1="1004.7188" y2="1004.7188"/><line style="stroke:#181818;stroke-width:1.0;" x1="154" x2="196" y1="1026.8516" y2="1026.8516"/><line style="stroke:#181818;stroke-width:1.0;" x1="196" x2="196" y1="1026.8516" y2="1039.8516"/><line style="stroke:#181818;stroke-width:1.0;" x1="155" x2="196" y1="1039.8516" y2="1039.8516"/><polygon fill="#181818" points="165,1035.8516,155,1039.8516,165,1043.8516,161,1039.8516" style="stroke:#181818;stroke-width:1.0;"/><text fill="#000000" font-family="sans-serif" font-size="13" lengthAdjust="spacing" textLength="48" x="161" y="1021.7856">expand</text><rect fill="#EEEEEE" height="3" style="stroke:#EEEEEE;stroke-width:1.0;" width="445" x="10" y="1082.418"/><line style="stroke:#000000;stroke-width:1.0;" x1="10" x2="455" y1="1082.418" y2="1082.418"/><line style="stroke:#000000;stroke-width:1.0;" x1="10" x2="455" y1="1085.418" y2="1085.418"/><rect fill="#EEEEEE" height="23.1328" style="stroke:#000000;stroke-width:2.0;" width="149" x="158" y="1071.8516"/><text fill="#000000" font-family="sans-serif" font-size="13" font-weight="bold" lengthAdjust="spacing" textLength="130" x="164" y="1087.9185">Simulation ended</text><polygon fill="#181818" points="332,1122.1172,342,1126.1172,332,1130.1172,336,1126.1172" style="stroke:#181818;stroke-width:1.0;"/><line style="stroke:#181818;stroke-width:1.0;" x1="154" x2="338" y1="1126.1172" y2="1126.1172"/><text fill="#000000" font-family="sans-serif" font-size="13" lengthAdjust="spacing" textLength="106" x="161" y="1121.0513">simulationEnded</text><polygon fill="#181818" points="165,1151.25,155,1155.25,165,1159.25,161,1155.25" style="stroke:#181818;stroke-width:1.0;"/><line style="stroke:#181818;stroke-width:1.0;stroke-dasharray:2.0,2.0;" x1="159" x2="338" y1="1155.25" y2="1155.25"/><text fill="#000000" font-family="sans-serif" font-size="13" lengthAdjust="spacing" textLength="62" x="171" y="1150.1841">backtrack</text><path d="M29,1170.25 L101,1170.25 L101,1177.3828 L91,1187.3828 L29,1187.3828 L29,1170.25 " fill="#EEEEEE" style="stroke:#000000;stroke-width:1.5;"/><rect fill="none" height="82.5313" style="stroke:#000000;stroke-width:1.5;" width="239" x="29" y="1170.25"/><text fill="#000000" font-family="sans-serif" font-size="13" font-weight="bold" lengthAdjust="spacing" textLength="27" x="44" y="1183.3169">opt</text><text fill="#000000" font-family="sans-serif" font-size="11" font-weight="bold" lengthAdjust="spacing" textLength="75" x="116" y="1182.4604">[backtrack]</text><path d="M39,1192.3828 L39,1247.3828 L258,1247.3828 L258,1202.3828 L248,1192.3828 L39,1192.3828 " fill="#FEFFDD" style="stroke:#181818;stroke-width:0.5;"/><path d="M248,1192.3828 L248,1202.3828 L258,1202.3828 L248,1192.3828 " fill="#FEFFDD" style="stroke:#181818;stroke-width:0.5;"/><text fill="#000000" font-family="sans-serif" font-size="13" lengthAdjust="spacing" textLength="198" x="45" y="1209.4497">Backtrack to last decision point</text><text fill="#000000" font-family="sans-serif" font-size="13" lengthAdjust="spacing" textLength="181" x="45" y="1224.5825">with untraversed successor,</text><text fill="#000000" font-family="sans-serif" font-size="13" lengthAdjust="spacing" textLength="87" x="45" y="1239.7153">Restore state</text><polygon fill="#181818" points="21,1268.7813,11,1272.7813,21,1276.7813,17,1272.7813" style="stroke:#181818;stroke-width:1.0;"/><line style="stroke:#181818;stroke-width:1.0;stroke-dasharray:2.0,2.0;" x1="15" x2="148" y1="1272.7813" y2="1272.7813"/><!--MD5=[8d7dabbbf0a8dd23fe20d3f5fd10dea4]
@startuml
mainframe **seq** Simulation
participant "Simulator" as sim
participant "SimulatorListener" as listener

-> sim : simulate
activate sim

sim -> listener : simulationStarted
activate listener
listener - -> sim
deactivate listener

loop traverse
 loop |successors| > 0
   == Select successor ==
   alt |successors| == 1
    sim -> listener : oneSuccessor
    activate listener
    listener - -> sim
   else
    sim -> listener : moreSuccessors
    activate listener
    listener - -> sim : selectedSuccessorIdx
    deactivate listener
   end
  
  opt havoc
== Handle havoc ==
   sim -> listener : askForConcreteValue
   activate listener
   listener - -> sim : concreteValue
   deactivate listener
  else |successors| > 1
   == Successor selected ==
   sim -> listener : successorSelected
   activate listener
   listener - -> sim
   deactivate listener
  end
  == Tracked variables check ==
  opt tracked variable value changed
   sim -> listener: valueChanged
   activate listener
   listener - -> sim
   deactivate listener
  end
  == Commit check ==
  opt stable state
   sim -> listener: splitTransitionCommitted
   activate listener
   listener - -> sim
   deactivate listener
  end
  == Cover check ==
  sim -> sim : close
  alt covered node
   sim -> listener : nodeIsCovered
   activate listener
   listener - -> sim
   deactivate listener
  else
   sim -> sim : expand
  end
 end
 == Simulation ended ==
 sim -> listener : simulationEnded
 activate listener
 listener - -> sim : backtrack
 deactivate listener
 opt backtrack
  note over sim : Backtrack to last decision point\nwith untraversed successor,\nRestore state
 end
end

<- - sim
deactivate sim
@enduml

PlantUML version 1.2022.14beta7(Unknown compile time)
(GPL source distribution)
Java Runtime: Java(TM) SE Runtime Environment
JVM: Java HotSpot(TM) 64-Bit Server VM
Default Encoding: UTF-8
Language: en
Country: US
--></g></svg>